ISO-10303-21;
HEADER;
FILE_DESCRIPTION (( 'STEP AP214' ),
    '1' );
FILE_NAME ('battery_side.STEP',
    '2026-02-22T23:27:22',
    ( '' ),
    ( '' ),
    'SwSTEP 2.0',
    'SolidWorks 2025',
    '' );
FILE_SCHEMA (( 'AUTOMOTIVE_DESIGN' ));
ENDSEC;

DATA;
#1 = CARTESIAN_POINT ( 'NONE',  ( 4.000000000000000000, 12.50000000000000000, -23.42500000000000071 ) ) ;
#2 = ORIENTED_EDGE ( 'NONE', *, *, #347, .F. ) ;
#3 = DIRECTION ( 'NONE',  ( 0.000000000000000000, 0.000000000000000000, -1.000000000000000000 ) ) ;
#4 = ORIENTED_EDGE ( 'NONE', *, *, #333, .T. ) ;
#5 = CARTESIAN_POINT ( 'NONE',  ( 7.900000000000002132, 0.000000000000000000, -2.000000000000000000 ) ) ;
#6 = AXIS2_PLACEMENT_3D ( 'NONE', #86, #427, #42 ) ;
#7 = ORIENTED_EDGE ( 'NONE', *, *, #154, .T. ) ;
#8 = CARTESIAN_POINT ( 'NONE',  ( 4.000000000000000000, 12.50000000000000000, -27.57500000000000284 ) ) ;
#9 = CARTESIAN_POINT ( 'NONE',  ( 4.000000000000000000, 12.50000000000000000, -6.000000000000000000 ) ) ;
#10 = PLANE ( 'NONE',  #432 ) ;
#11 = VECTOR ( 'NONE', #209, 1000.000000000000114 ) ;
#12 = DIRECTION ( 'NONE',  ( -0.6476484200955403558, 0.000000000000000000, 0.7619393177594593336 ) ) ;
#13 = ADVANCED_FACE ( 'NONE', ( #328 ), #214, .T. ) ;
#14 = SHAPE_DEFINITION_REPRESENTATION ( #304, #224 ) ;
#15 = CARTESIAN_POINT ( 'NONE',  ( 11.30000000000000071, 5.200000000000000178, -31.50000000000000000 ) ) ;
#16 = FACE_OUTER_BOUND ( 'NONE', #259, .T. ) ;
#17 = DIRECTION ( 'NONE',  ( 0.000000000000000000, 0.000000000000000000, 1.000000000000000000 ) ) ;
#18 = DIRECTION ( 'NONE',  ( -0.000000000000000000, -1.000000000000000000, -0.000000000000000000 ) ) ;
#19 = ORIENTED_EDGE ( 'NONE', *, *, #25, .F. ) ;
#20 = CARTESIAN_POINT ( 'NONE',  ( 4.000000000000000000, 12.50000000000000000, -3.924999999999999822 ) ) ;
#21 = VERTEX_POINT ( 'NONE', #85 ) ;
#22 = ADVANCED_FACE ( 'NONE', ( #16 ), #220, .T. ) ;
#23 = CARTESIAN_POINT ( 'NONE',  ( 0.000000000000000000, 12.50000000000000000, -31.50000000000000000 ) ) ;
#24 = ORIENTED_EDGE ( 'NONE', *, *, #203, .F. ) ;
#25 = EDGE_CURVE ( 'NONE', #241, #409, #149, .T. ) ;
#26 = PLANE ( 'NONE',  #306 ) ;
#27 = EDGE_LOOP ( 'NONE', ( #343, #277, #371, #205 ) ) ;
#28 = DIRECTION ( 'NONE',  ( 0.000000000000000000, 0.000000000000000000, 1.000000000000000000 ) ) ;
#29 = VERTEX_POINT ( 'NONE', #247 ) ;
#30 = EDGE_CURVE ( 'NONE', #232, #108, #222, .T. ) ;
#31 = FACE_OUTER_BOUND ( 'NONE', #236, .T. ) ;
#32 = ORIENTED_EDGE ( 'NONE', *, *, #188, .T. ) ;
#33 = CIRCLE ( 'NONE', #89, 2.075000000000000622 ) ;
#34 = CARTESIAN_POINT ( 'NONE',  ( 0.000000000000000000, 0.000000000000000000, -31.50000000000000000 ) ) ;
#35 = ORIENTED_EDGE ( 'NONE', *, *, #91, .F. ) ;
#36 = CARTESIAN_POINT ( 'NONE',  ( 4.000000000000000000, 12.50000000000000000, -25.50000000000000355 ) ) ;
#37 = EDGE_LOOP ( 'NONE', ( #24, #377, #62, #420, #381, #35 ) ) ;
#38 = DIRECTION ( 'NONE',  ( -1.000000000000000000, 0.000000000000000000, -0.000000000000000000 ) ) ;
#39 = ORIENTED_EDGE ( 'NONE', *, *, #270, .F. ) ;
#40 = LINE ( 'NONE', #47, #331 ) ;
#41 = VECTOR ( 'NONE', #361, 1000.000000000000000 ) ;
#42 = DIRECTION ( 'NONE',  ( 0.000000000000000000, 0.000000000000000000, 1.000000000000000000 ) ) ;
#43 = CARTESIAN_POINT ( 'NONE',  ( 4.000000000000000000, 5.500000000000000888, -27.57500000000000284 ) ) ;
#44 = LINE ( 'NONE', #144, #298 ) ;
#45 = EDGE_CURVE ( 'NONE', #232, #308, #282, .T. ) ;
#46 = CARTESIAN_POINT ( 'NONE',  ( 11.30000000000000071, 10.00000000000000000, -5.999999999999998224 ) ) ;
#47 = CARTESIAN_POINT ( 'NONE',  ( 0.000000000000000000, 0.000000000000000000, -31.50000000000000000 ) ) ;
#48 = DIRECTION ( 'NONE',  ( 0.000000000000000000, 0.000000000000000000, 1.000000000000000000 ) ) ;
#49 = CARTESIAN_POINT ( 'NONE',  ( 4.000000000000000000, 5.500000000000000888, -25.50000000000000355 ) ) ;
#50 = CARTESIAN_POINT ( 'NONE',  ( 7.900000000000002132, 5.200000000000000178, -31.50000000000000000 ) ) ;
#51 = VECTOR ( 'NONE', #191, 1000.000000000000000 ) ;
#52 = CARTESIAN_POINT ( 'NONE',  ( 0.000000000000000000, 0.000000000000000000, -31.50000000000000000 ) ) ;
#53 = EDGE_CURVE ( 'NONE', #54, #234, #217, .T. ) ;
#54 = VERTEX_POINT ( 'NONE', #430 ) ;
#55 = AXIS2_PLACEMENT_3D ( 'NONE', #147, #327, #115 ) ;
#56 = ADVANCED_FACE ( 'NONE', ( #425 ), #10, .T. ) ;
#57 = ORIENTED_EDGE ( 'NONE', *, *, #415, .T. ) ;
#58 = DIRECTION ( 'NONE',  ( -0.000000000000000000, 1.000000000000000000, -0.000000000000000000 ) ) ;
#59 = ORIENTED_EDGE ( 'NONE', *, *, #134, .T. ) ;
#60 = AXIS2_PLACEMENT_3D ( 'NONE', #46, #320, #12 ) ;
#61 = CARTESIAN_POINT ( 'NONE',  ( 11.30000000000000071, 0.000000000000000000, -5.999999999999998224 ) ) ;
#62 = ORIENTED_EDGE ( 'NONE', *, *, #218, .F. ) ;
#63 = EDGE_CURVE ( 'NONE', #409, #68, #180, .T. ) ;
#64 = CARTESIAN_POINT ( 'NONE',  ( 4.000000000000000000, 5.500000000000000888, -25.50000000000000355 ) ) ;
#65 = ORIENTED_EDGE ( 'NONE', *, *, #139, .T. ) ;
#66 = UNCERTAINTY_MEASURE_WITH_UNIT (LENGTH_MEASURE( 1.000000000000000082E-05 ), #141, 'distance_accuracy_value', 'NONE');
#67 = CYLINDRICAL_SURFACE ( 'NONE', #143, 2.075000000000000622 ) ;
#68 = VERTEX_POINT ( 'NONE', #358 ) ;
#69 = VECTOR ( 'NONE', #58, 1000.000000000000000 ) ;
#70 = DIRECTION ( 'NONE',  ( 0.000000000000000000, 0.000000000000000000, 1.000000000000000000 ) ) ;
#71 = EDGE_LOOP ( 'NONE', ( #121, #264, #99, #59 ) ) ;
#72 = CARTESIAN_POINT ( 'NONE',  ( 22.45732946298984345, 5.200000000000000178, -19.12626995645863559 ) ) ;
#73 = ORIENTED_EDGE ( 'NONE', *, *, #105, .F. ) ;
#74 = LINE ( 'NONE', #213, #93 ) ;
#75 = ORIENTED_EDGE ( 'NONE', *, *, #183, .T. ) ;
#76 = APPLICATION_CONTEXT ( 'automotive_design' ) ;
#77 = CARTESIAN_POINT ( 'NONE',  ( 11.30000000000000071, 0.000000000000000000, -31.50000000000000000 ) ) ;
#78 = ORIENTED_EDGE ( 'NONE', *, *, #122, .T. ) ;
#79 = ADVANCED_FACE ( 'NONE', ( #362 ), #423, .F. ) ;
#80 = AXIS2_PLACEMENT_3D ( 'NONE', #416, #380, #206 ) ;
#81 = DIRECTION ( 'NONE',  ( 0.000000000000000000, 0.000000000000000000, 1.000000000000000000 ) ) ;
#82 = DIRECTION ( 'NONE',  ( -0.000000000000000000, 1.000000000000000000, -0.000000000000000000 ) ) ;
#83 = DIRECTION ( 'NONE',  ( -0.000000000000000000, 1.000000000000000000, -0.000000000000000000 ) ) ;
#84 = DIRECTION ( 'NONE',  ( -0.000000000000000000, 1.000000000000000000, -0.000000000000000000 ) ) ;
#85 = CARTESIAN_POINT ( 'NONE',  ( 4.000000000000000000, 5.500000000000000888, -27.57500000000000284 ) ) ;
#86 = CARTESIAN_POINT ( 'NONE',  ( 4.000000000000000000, 5.500000000000000888, -6.000000000000000000 ) ) ;
#87 = LINE ( 'NONE', #338, #261 ) ;
#88 = ORIENTED_EDGE ( 'NONE', *, *, #45, .F. ) ;
#89 = AXIS2_PLACEMENT_3D ( 'NONE', #444, #274, #418 ) ;
#90 = LINE ( 'NONE', #363, #322 ) ;
#91 = EDGE_CURVE ( 'NONE', #160, #398, #44, .T. ) ;
#92 = CARTESIAN_POINT ( 'NONE',  ( 11.30000000000000071, 0.000000000000000000, -5.999999999999998224 ) ) ;
#93 = VECTOR ( 'NONE', #316, 1000.000000000000000 ) ;
#94 =( NAMED_UNIT ( * ) PLANE_ANGLE_UNIT ( ) SI_UNIT ( $, .RADIAN. ) );
#95 = ORIENTED_EDGE ( 'NONE', *, *, #145, .F. ) ;
#96 = CARTESIAN_POINT ( 'NONE',  ( 4.000000000000000000, 5.500000000000000888, -25.50000000000000355 ) ) ;
#97 = ORIENTED_EDGE ( 'NONE', *, *, #391, .F. ) ;
#98 = CARTESIAN_POINT ( 'NONE',  ( 7.900000000000002132, 5.200000000000000178, -2.000000000000000000 ) ) ;
#99 = ORIENTED_EDGE ( 'NONE', *, *, #63, .T. ) ;
#100 = DIRECTION ( 'NONE',  ( 0.6476484200955403558, -0.000000000000000000, -0.7619393177594593336 ) ) ;
#101 = ORIENTED_EDGE ( 'NONE', *, *, #429, .F. ) ;
#102 = DIRECTION ( 'NONE',  ( 0.000000000000000000, 1.000000000000000000, 0.000000000000000000 ) ) ;
#103 = EDGE_LOOP ( 'NONE', ( #414, #436, #32, #273 ) ) ;
#104 = VECTOR ( 'NONE', #82, 1000.000000000000000 ) ;
#105 = EDGE_CURVE ( 'NONE', #353, #68, #117, .T. ) ;
#106 = DIRECTION ( 'NONE',  ( -0.000000000000000000, -0.000000000000000000, -1.000000000000000000 ) ) ;
#107 = EDGE_LOOP ( 'NONE', ( #442, #210, #300, #269, #310, #57 ) ) ;
#108 = VERTEX_POINT ( 'NONE', #177 ) ;
#109 = DIRECTION ( 'NONE',  ( -2.376333528735352191E-16, 1.000000000000000000, -0.000000000000000000 ) ) ;
#110 = AXIS2_PLACEMENT_3D ( 'NONE', #329, #263, #433 ) ;
#111 = ADVANCED_FACE ( 'NONE', ( #148 ), #182, .F. ) ;
#112 = LINE ( 'NONE', #77, #215 ) ;
#113 = DIRECTION ( 'NONE',  ( 1.000000000000000000, 2.376333528735352191E-16, -0.000000000000000000 ) ) ;
#114 = CARTESIAN_POINT ( 'NONE',  ( 0.000000000000000000, 0.000000000000000000, 0.000000000000000000 ) ) ;
#115 = DIRECTION ( 'NONE',  ( 1.000000000000000000, 0.000000000000000000, 0.000000000000000000 ) ) ;
#116 = PRODUCT_RELATED_PRODUCT_CATEGORY ( 'part', '', ( #401 ) ) ;
#117 = LINE ( 'NONE', #179, #196 ) ;
#118 = CARTESIAN_POINT ( 'NONE',  ( 7.900000000000000355, 12.50000000000000000, -31.50000000000000000 ) ) ;
#119 = VERTEX_POINT ( 'NONE', #287 ) ;
#120 = FACE_OUTER_BOUND ( 'NONE', #151, .T. ) ;
#121 = ORIENTED_EDGE ( 'NONE', *, *, #446, .T. ) ;
#122 = EDGE_CURVE ( 'NONE', #133, #368, #289, .T. ) ;
#123 = VECTOR ( 'NONE', #294, 1000.000000000000000 ) ;
#124 = PLANE ( 'NONE',  #110 ) ;
#125 = DIRECTION ( 'NONE',  ( 0.000000000000000000, -0.000000000000000000, 1.000000000000000000 ) ) ;
#126 = CIRCLE ( 'NONE', #302, 2.075000000000000622 ) ;
#127 = CARTESIAN_POINT ( 'NONE',  ( 7.900000000000002132, 0.000000000000000000, -2.000000000000000000 ) ) ;
#128 = EDGE_LOOP ( 'NONE', ( #101, #351, #78, #212 ) ) ;
#129 = CYLINDRICAL_SURFACE ( 'NONE', #405, 2.075000000000000622 ) ;
#130 = VERTEX_POINT ( 'NONE', #8 ) ;
#131 = VECTOR ( 'NONE', #216, 1000.000000000000000 ) ;
#132 = CARTESIAN_POINT ( 'NONE',  ( 0.000000000000000000, 0.000000000000000000, 0.000000000000000000 ) ) ;
#133 = VERTEX_POINT ( 'NONE', #360 ) ;
#134 = EDGE_CURVE ( 'NONE', #68, #370, #323, .T. ) ;
#135 = DIRECTION ( 'NONE',  ( 0.000000000000000000, 0.000000000000000000, 1.000000000000000000 ) ) ;
#136 = VERTEX_POINT ( 'NONE', #392 ) ;
#137 = LINE ( 'NONE', #72, #11 ) ;
#138 = LINE ( 'NONE', #43, #428 ) ;
#139 = EDGE_CURVE ( 'NONE', #308, #244, #255, .T. ) ;
#140 = DIRECTION ( 'NONE',  ( -2.376333528735352191E-16, 1.000000000000000000, 0.000000000000000000 ) ) ;
#141 =( LENGTH_UNIT ( ) NAMED_UNIT ( * ) SI_UNIT ( .MILLI., .METRE. ) );
#142 = DIRECTION ( 'NONE',  ( 1.000000000000000000, 0.000000000000000000, -0.000000000000000000 ) ) ;
#143 = AXIS2_PLACEMENT_3D ( 'NONE', #64, #313, #70 ) ;
#144 = CARTESIAN_POINT ( 'NONE',  ( 11.30000000000000071, 5.200000000000000178, -31.50000000000000000 ) ) ;
#145 = EDGE_CURVE ( 'NONE', #119, #54, #126, .T. ) ;
#146 = VECTOR ( 'NONE', #106, 1000.000000000000000 ) ;
#147 = CARTESIAN_POINT ( 'NONE',  ( 0.000000000000000000, 0.000000000000000000, 0.000000000000000000 ) ) ;
#148 = FACE_OUTER_BOUND ( 'NONE', #404, .T. ) ;
#149 = LINE ( 'NONE', #396, #291 ) ;
#150 = SURFACE_SIDE_STYLE ('',( #231 ) ) ;
#151 = EDGE_LOOP ( 'NONE', ( #193, #73, #336, #239 ) ) ;
#152 = MANIFOLD_SOLID_BREP ( 'Cut-Extrude2', #159 ) ;
#153 = CARTESIAN_POINT ( 'NONE',  ( 4.000000000000000000, 5.500000000000000888, -8.075000000000001066 ) ) ;
#154 = EDGE_CURVE ( 'NONE', #133, #21, #344, .T. ) ;
#155 = ORIENTED_EDGE ( 'NONE', *, *, #262, .F. ) ;
#156 = LINE ( 'NONE', #400, #378 ) ;
#157 = ORIENTED_EDGE ( 'NONE', *, *, #63, .F. ) ;
#158 = PRESENTATION_STYLE_ASSIGNMENT (( #260 ) ) ;
#159 = CLOSED_SHELL ( 'NONE', ( #366, #285, #265, #201, #251, #22, #194, #56, #319, #434, #350, #13, #79, #237, #111 ) ) ;
#160 = VERTEX_POINT ( 'NONE', #335 ) ;
#161 = FACE_OUTER_BOUND ( 'NONE', #107, .T. ) ;
#162 = APPLICATION_CONTEXT ( 'automotive_design' ) ;
#163 = MECHANICAL_DESIGN_GEOMETRIC_PRESENTATION_REPRESENTATION (  '', ( #440 ), #245 ) ;
#164 = EDGE_LOOP ( 'NONE', ( #157, #2, #375, #275 ) ) ;
#165 = AXIS2_PLACEMENT_3D ( 'NONE', #406, #226, #125 ) ;
#166 = DIRECTION ( 'NONE',  ( 0.000000000000000000, -0.000000000000000000, 1.000000000000000000 ) ) ;
#167 = ORIENTED_EDGE ( 'NONE', *, *, #183, .F. ) ;
#168 = UNCERTAINTY_MEASURE_WITH_UNIT (LENGTH_MEASURE( 1.000000000000000082E-05 ), #258, 'distance_accuracy_value', 'NONE');
#169 = DIRECTION ( 'NONE',  ( -0.000000000000000000, 1.000000000000000000, -0.000000000000000000 ) ) ;
#170 = EDGE_CURVE ( 'NONE', #136, #243, #87, .T. ) ;
#171 = ORIENTED_EDGE ( 'NONE', *, *, #415, .F. ) ;
#172 = PRODUCT_DEFINITION_FORMATION_WITH_SPECIFIED_SOURCE ( 'ANY', '', #401, .NOT_KNOWN. ) ;
#173 = DIRECTION ( 'NONE',  ( 0.000000000000000000, 1.000000000000000000, 0.000000000000000000 ) ) ;
#174 = VERTEX_POINT ( 'NONE', #408 ) ;
#175 = FACE_OUTER_BOUND ( 'NONE', #128, .T. ) ;
#176 = ORIENTED_EDGE ( 'NONE', *, *, #270, .T. ) ;
#177 = CARTESIAN_POINT ( 'NONE',  ( 7.900000000000000355, 12.50000000000000000, -31.50000000000000000 ) ) ;
#178 = FACE_OUTER_BOUND ( 'NONE', #71, .T. ) ;
#179 = CARTESIAN_POINT ( 'NONE',  ( 0.000000000000000000, 12.50000000000000000, -31.50000000000000000 ) ) ;
#180 = LINE ( 'NONE', #284, #41 ) ;
#181 = CIRCLE ( 'NONE', #202, 2.075000000000000622 ) ;
#182 = PLANE ( 'NONE',  #60 ) ;
#183 = EDGE_CURVE ( 'NONE', #119, #29, #299, .T. ) ;
#184 = CARTESIAN_POINT ( 'NONE',  ( 4.000000000000000000, 5.500000000000000888, -3.924999999999999822 ) ) ;
#185 = PRESENTATION_LAYER_ASSIGNMENT (  '', '', ( #440 ) ) ;
#186 = DIRECTION ( 'NONE',  ( 0.000000000000000000, 1.000000000000000000, 0.000000000000000000 ) ) ;
#187 = AXIS2_PLACEMENT_3D ( 'NONE', #382, #342, #276 ) ;
#188 = EDGE_CURVE ( 'NONE', #398, #232, #192, .T. ) ;
#189 = DIRECTION ( 'NONE',  ( 1.000000000000000000, -0.000000000000000000, -0.000000000000000000 ) ) ;
#190 = CIRCLE ( 'NONE', #288, 2.075000000000000622 ) ;
#191 = DIRECTION ( 'NONE',  ( -1.000000000000000000, -0.000000000000000000, -0.000000000000000000 ) ) ;
#192 = LINE ( 'NONE', #439, #51 ) ;
#193 = ORIENTED_EDGE ( 'NONE', *, *, #134, .F. ) ;
#194 = ADVANCED_FACE ( 'NONE', ( #195 ), #369, .T. ) ;
#195 = FACE_OUTER_BOUND ( 'NONE', #103, .T. ) ;
#196 = VECTOR ( 'NONE', #48, 1000.000000000000000 ) ;
#197 = CARTESIAN_POINT ( 'NONE',  ( 0.000000000000000000, 12.50000000000000000, -31.50000000000000000 ) ) ;
#198 = EDGE_LOOP ( 'NONE', ( #305, #339 ) ) ;
#199 = FACE_BOUND ( 'NONE', #334, .T. ) ;
#200 = ORIENTED_EDGE ( 'NONE', *, *, #399, .F. ) ;
#201 = ADVANCED_FACE ( 'NONE', ( #120 ), #26, .T. ) ;
#202 = AXIS2_PLACEMENT_3D ( 'NONE', #268, #376, #238 ) ;
#203 = EDGE_CURVE ( 'NONE', #174, #160, #156, .T. ) ;
#204 = PLANE ( 'NONE',  #443 ) ;
#205 = ORIENTED_EDGE ( 'NONE', *, *, #122, .F. ) ;
#206 = DIRECTION ( 'NONE',  ( 0.000000000000000000, 0.000000000000000000, 1.000000000000000000 ) ) ;
#207 = ORIENTED_EDGE ( 'NONE', *, *, #53, .F. ) ;
#208 = CIRCLE ( 'NONE', #349, 2.075000000000000622 ) ;
#209 = DIRECTION ( 'NONE',  ( -0.6476484200955403558, 0.000000000000000000, 0.7619393177594593336 ) ) ;
#210 = ORIENTED_EDGE ( 'NONE', *, *, #356, .F. ) ;
#211 = DIRECTION ( 'NONE',  ( 0.000000000000000000, 0.000000000000000000, -1.000000000000000000 ) ) ;
#212 = ORIENTED_EDGE ( 'NONE', *, *, #262, .T. ) ;
#213 = CARTESIAN_POINT ( 'NONE',  ( 0.000000000000000000, 0.000000000000000000, -31.50000000000000000 ) ) ;
#214 = PLANE ( 'NONE',  #419 ) ;
#215 = VECTOR ( 'NONE', #81, 1000.000000000000000 ) ;
#216 = DIRECTION ( 'NONE',  ( 1.000000000000000000, -0.000000000000000000, -0.000000000000000000 ) ) ;
#217 = LINE ( 'NONE', #184, #278 ) ;
#218 = EDGE_CURVE ( 'NONE', #108, #353, #367, .T. ) ;
#219 = EDGE_CURVE ( 'NONE', #398, #136, #90, .T. ) ;
#220 = PLANE ( 'NONE',  #337 ) ;
#221 = VECTOR ( 'NONE', #249, 1000.000000000000000 ) ;
#222 = LINE ( 'NONE', #325, #256 ) ;
#223 = DIRECTION ( 'NONE',  ( 0.000000000000000000, 0.000000000000000000, 1.000000000000000000 ) ) ;
#224 = ADVANCED_BREP_SHAPE_REPRESENTATION ( 'battery_side', ( #152, #55 ), #389 ) ;
#225 = COLOUR_RGB ( '',0.7921568627450980005, 0.8196078431372548767, 0.9333333333333333481 ) ;
#226 = DIRECTION ( 'NONE',  ( 0.000000000000000000, 1.000000000000000000, 0.000000000000000000 ) ) ;
#227 = AXIS2_PLACEMENT_3D ( 'NONE', #34, #3, #38 ) ;
#228 = DIRECTION ( 'NONE',  ( -1.000000000000000000, 0.000000000000000000, 0.000000000000000000 ) ) ;
#229 = AXIS2_PLACEMENT_3D ( 'NONE', #96, #169, #235 ) ;
#230 = CARTESIAN_POINT ( 'NONE',  ( 7.900000000000002132, 0.000000000000000000, 0.000000000000000000 ) ) ;
#231 = SURFACE_STYLE_FILL_AREA ( #437 ) ;
#232 = VERTEX_POINT ( 'NONE', #50 ) ;
#233 = PLANE ( 'NONE',  #283 ) ;
#234 = VERTEX_POINT ( 'NONE', #20 ) ;
#235 = DIRECTION ( 'NONE',  ( 0.000000000000000000, 0.000000000000000000, 1.000000000000000000 ) ) ;
#236 = EDGE_LOOP ( 'NONE', ( #95, #75, #176, #207 ) ) ;
#237 = ADVANCED_FACE ( 'NONE', ( #403 ), #124, .T. ) ;
#238 = DIRECTION ( 'NONE',  ( 0.000000000000000000, 0.000000000000000000, 1.000000000000000000 ) ) ;
#239 = ORIENTED_EDGE ( 'NONE', *, *, #394, .T. ) ;
#240 = LINE ( 'NONE', #127, #146 ) ;
#241 = VERTEX_POINT ( 'NONE', #230 ) ;
#242 = DIRECTION ( 'NONE',  ( 0.000000000000000000, -0.000000000000000000, -1.000000000000000000 ) ) ;
#243 = VERTEX_POINT ( 'NONE', #92 ) ;
#244 = VERTEX_POINT ( 'NONE', #5 ) ;
#245 =( GEOMETRIC_REPRESENTATION_CONTEXT ( 3 ) GLOBAL_UNCERTAINTY_ASSIGNED_CONTEXT ( ( #168 ) ) GLOBAL_UNIT_ASSIGNED_CONTEXT ( ( #258, #94, #292 ) ) REPRESENTATION_CONTEXT ( 'NONE', 'WORKASPACE' ) );
#246 = APPLICATION_PROTOCOL_DEFINITION ( 'draft international standard', 'automotive_design', 1998, #162 ) ;
#247 = CARTESIAN_POINT ( 'NONE',  ( 4.000000000000000000, 12.50000000000000000, -8.075000000000001066 ) ) ;
#248 = APPLICATION_PROTOCOL_DEFINITION ( 'draft international standard', 'automotive_design', 1998, #76 ) ;
#249 = DIRECTION ( 'NONE',  ( 0.000000000000000000, 0.000000000000000000, 1.000000000000000000 ) ) ;
#250 = AXIS2_PLACEMENT_3D ( 'NONE', #318, #211, #354 ) ;
#251 = ADVANCED_FACE ( 'NONE', ( #348, #199, #352 ), #233, .T. ) ;
#252 = CARTESIAN_POINT ( 'NONE',  ( 11.30000000000000071, 5.200000000000000178, -31.50000000000000000 ) ) ;
#253 = DIRECTION ( 'NONE',  ( -0.000000000000000000, -1.000000000000000000, -0.000000000000000000 ) ) ;
#254 = CARTESIAN_POINT ( 'NONE',  ( 11.30000000000000071, 0.000000000000000000, 0.000000000000000000 ) ) ;
#255 = LINE ( 'NONE', #395, #422 ) ;
#256 = VECTOR ( 'NONE', #109, 1000.000000000000000 ) ;
#257 = DIRECTION ( 'NONE',  ( 0.000000000000000000, 1.000000000000000000, 0.000000000000000000 ) ) ;
#258 =( LENGTH_UNIT ( ) NAMED_UNIT ( * ) SI_UNIT ( .MILLI., .METRE. ) );
#259 = EDGE_LOOP ( 'NONE', ( #341, #88, #417, #346, #19, #267 ) ) ;
#260 = SURFACE_STYLE_USAGE ( .BOTH. , #150 ) ;
#261 = VECTOR ( 'NONE', #364, 1000.000000000000000 ) ;
#262 = EDGE_CURVE ( 'NONE', #368, #130, #181, .T. ) ;
#263 = DIRECTION ( 'NONE',  ( 0.000000000000000000, 1.000000000000000000, 0.000000000000000000 ) ) ;
#264 = ORIENTED_EDGE ( 'NONE', *, *, #25, .T. ) ;
#265 = ADVANCED_FACE ( 'NONE', ( #161 ), #204, .T. ) ;
#266 = ORIENTED_EDGE ( 'NONE', *, *, #170, .T. ) ;
#267 = ORIENTED_EDGE ( 'NONE', *, *, #356, .T. ) ;
#268 = CARTESIAN_POINT ( 'NONE',  ( 4.000000000000000000, 12.50000000000000000, -25.50000000000000355 ) ) ;
#269 = ORIENTED_EDGE ( 'NONE', *, *, #394, .F. ) ;
#270 = EDGE_CURVE ( 'NONE', #29, #234, #438, .T. ) ;
#271 = CARTESIAN_POINT ( 'NONE',  ( 4.000000000000000000, 5.500000000000000888, -6.000000000000000000 ) ) ;
#272 = CIRCLE ( 'NONE', #80, 2.075000000000000622 ) ;
#273 = ORIENTED_EDGE ( 'NONE', *, *, #45, .T. ) ;
#274 = DIRECTION ( 'NONE',  ( 0.000000000000000000, 1.000000000000000000, 0.000000000000000000 ) ) ;
#275 = ORIENTED_EDGE ( 'NONE', *, *, #105, .T. ) ;
#276 = DIRECTION ( 'NONE',  ( 0.000000000000000000, 0.000000000000000000, 1.000000000000000000 ) ) ;
#277 = ORIENTED_EDGE ( 'NONE', *, *, #429, .T. ) ;
#278 = VECTOR ( 'NONE', #317, 1000.000000000000000 ) ;
#279 = CYLINDRICAL_SURFACE ( 'NONE', #229, 2.075000000000000622 ) ;
#280 = ORIENTED_EDGE ( 'NONE', *, *, #379, .F. ) ;
#281 =( NAMED_UNIT ( * ) PLANE_ANGLE_UNIT ( ) SI_UNIT ( $, .RADIAN. ) );
#282 = LINE ( 'NONE', #431, #221 ) ;
#283 = AXIS2_PLACEMENT_3D ( 'NONE', #372, #102, #166 ) ;
#284 = CARTESIAN_POINT ( 'NONE',  ( 0.000000000000000000, 12.50000000000000000, 0.000000000000000000 ) ) ;
#285 = ADVANCED_FACE ( 'NONE', ( #307 ), #67, .F. ) ;
#286 = EDGE_CURVE ( 'NONE', #136, #308, #137, .T. ) ;
#287 = CARTESIAN_POINT ( 'NONE',  ( 4.000000000000000000, 5.500000000000000888, -8.075000000000001066 ) ) ;
#288 = AXIS2_PLACEMENT_3D ( 'NONE', #36, #173, #135 ) ;
#289 = LINE ( 'NONE', #388, #104 ) ;
#290 = DIRECTION ( 'NONE',  ( -2.376333528735352191E-16, 1.000000000000000000, -0.000000000000000000 ) ) ;
#291 = VECTOR ( 'NONE', #290, 1000.000000000000000 ) ;
#292 =( NAMED_UNIT ( * ) SI_UNIT ( $, .STERADIAN. ) SOLID_ANGLE_UNIT ( ) );
#293 = ORIENTED_EDGE ( 'NONE', *, *, #53, .T. ) ;
#294 = DIRECTION ( 'NONE',  ( -1.000000000000000000, -0.000000000000000000, -0.000000000000000000 ) ) ;
#295 = ORIENTED_EDGE ( 'NONE', *, *, #91, .T. ) ;
#296 = CARTESIAN_POINT ( 'NONE',  ( 4.000000000000000000, 5.500000000000000888, -25.50000000000000355 ) ) ;
#297 = EDGE_CURVE ( 'NONE', #244, #243, #441, .T. ) ;
#298 = VECTOR ( 'NONE', #84, 1000.000000000000000 ) ;
#299 = LINE ( 'NONE', #153, #69 ) ;
#300 = ORIENTED_EDGE ( 'NONE', *, *, #446, .F. ) ;
#301 = DIRECTION ( 'NONE',  ( 0.000000000000000000, 1.000000000000000000, 0.000000000000000000 ) ) ;
#302 = AXIS2_PLACEMENT_3D ( 'NONE', #330, #186, #17 ) ;
#303 = CARTESIAN_POINT ( 'NONE',  ( 11.30000000000000071, 0.000000000000000000, -31.50000000000000000 ) ) ;
#304 = PRODUCT_DEFINITION_SHAPE ( 'NONE', 'NONE',  #326 ) ;
#305 = ORIENTED_EDGE ( 'NONE', *, *, #379, .T. ) ;
#306 = AXIS2_PLACEMENT_3D ( 'NONE', #52, #228, #223 ) ;
#307 = FACE_OUTER_BOUND ( 'NONE', #27, .T. ) ;
#308 = VERTEX_POINT ( 'NONE', #98 ) ;
#309 = DIRECTION ( 'NONE',  ( 0.000000000000000000, 0.000000000000000000, 1.000000000000000000 ) ) ;
#310 = ORIENTED_EDGE ( 'NONE', *, *, #203, .T. ) ;
#311 = FACE_OUTER_BOUND ( 'NONE', #37, .T. ) ;
#312 = ORIENTED_EDGE ( 'NONE', *, *, #297, .T. ) ;
#313 = DIRECTION ( 'NONE',  ( -0.000000000000000000, 1.000000000000000000, -0.000000000000000000 ) ) ;
#314 = EDGE_LOOP ( 'NONE', ( #167, #280, #293, #385 ) ) ;
#315 = VECTOR ( 'NONE', #253, 1000.000000000000000 ) ;
#316 = DIRECTION ( 'NONE',  ( -0.000000000000000000, -1.000000000000000000, -0.000000000000000000 ) ) ;
#317 = DIRECTION ( 'NONE',  ( -0.000000000000000000, 1.000000000000000000, -0.000000000000000000 ) ) ;
#318 = CARTESIAN_POINT ( 'NONE',  ( 0.000000000000000000, 0.000000000000000000, 0.000000000000000000 ) ) ;
#319 = ADVANCED_FACE ( 'NONE', ( #311 ), #340, .T. ) ;
#320 = DIRECTION ( 'NONE',  ( -0.7619393177594594446, 0.000000000000000000, -0.6476484200955404669 ) ) ;
#321 = PRODUCT_CONTEXT ( 'NONE', #76, 'mechanical' ) ;
#322 = VECTOR ( 'NONE', #332, 1000.000000000000000 ) ;
#323 = LINE ( 'NONE', #114, #315 ) ;
#324 =( NAMED_UNIT ( * ) SI_UNIT ( $, .STERADIAN. ) SOLID_ANGLE_UNIT ( ) );
#325 = CARTESIAN_POINT ( 'NONE',  ( 7.900000000000000355, 12.50000000000000000, -31.50000000000000000 ) ) ;
#326 = PRODUCT_DEFINITION ( 'UNKNOWN', '', #172, #412 ) ;
#327 = DIRECTION ( 'NONE',  ( 0.000000000000000000, 0.000000000000000000, 1.000000000000000000 ) ) ;
#328 = FACE_OUTER_BOUND ( 'NONE', #421, .T. ) ;
#329 = CARTESIAN_POINT ( 'NONE',  ( 4.000000000000000000, 5.500000000000000888, -6.000000000000000000 ) ) ;
#330 = CARTESIAN_POINT ( 'NONE',  ( 4.000000000000000000, 5.500000000000000888, -6.000000000000000000 ) ) ;
#331 = VECTOR ( 'NONE', #393, 1000.000000000000000 ) ;
#332 = DIRECTION ( 'NONE',  ( 0.000000000000000000, 0.000000000000000000, 1.000000000000000000 ) ) ;
#333 = EDGE_CURVE ( 'NONE', #21, #133, #33, .T. ) ;
#334 = EDGE_LOOP ( 'NONE', ( #155, #97 ) ) ;
#335 = CARTESIAN_POINT ( 'NONE',  ( 11.30000000000000071, 0.000000000000000000, -31.50000000000000000 ) ) ;
#336 = ORIENTED_EDGE ( 'NONE', *, *, #426, .T. ) ;
#337 = AXIS2_PLACEMENT_3D ( 'NONE', #118, #113, #140 ) ;
#338 = CARTESIAN_POINT ( 'NONE',  ( 11.30000000000000071, 10.00000000000000000, -5.999999999999998224 ) ) ;
#339 = ORIENTED_EDGE ( 'NONE', *, *, #145, .T. ) ;
#340 = PLANE ( 'NONE',  #227 ) ;
#341 = ORIENTED_EDGE ( 'NONE', *, *, #139, .F. ) ;
#342 = DIRECTION ( 'NONE',  ( 0.000000000000000000, 1.000000000000000000, 0.000000000000000000 ) ) ;
#343 = ORIENTED_EDGE ( 'NONE', *, *, #333, .F. ) ;
#344 = CIRCLE ( 'NONE', #365, 2.075000000000000622 ) ;
#345 = CARTESIAN_POINT ( 'NONE',  ( 7.900000000000000355, 12.50000000000000000, -31.50000000000000000 ) ) ;
#346 = ORIENTED_EDGE ( 'NONE', *, *, #347, .T. ) ;
#347 = EDGE_CURVE ( 'NONE', #108, #409, #374, .T. ) ;
#348 = FACE_BOUND ( 'NONE', #445, .T. ) ;
#349 = AXIS2_PLACEMENT_3D ( 'NONE', #9, #390, #357 ) ;
#350 = ADVANCED_FACE ( 'NONE', ( #175 ), #279, .F. ) ;
#351 = ORIENTED_EDGE ( 'NONE', *, *, #154, .F. ) ;
#352 = FACE_OUTER_BOUND ( 'NONE', #164, .T. ) ;
#353 = VERTEX_POINT ( 'NONE', #197 ) ;
#354 = DIRECTION ( 'NONE',  ( -1.000000000000000000, 0.000000000000000000, -0.000000000000000000 ) ) ;
#355 = DIRECTION ( 'NONE',  ( 0.000000000000000000, -0.000000000000000000, 1.000000000000000000 ) ) ;
#356 = EDGE_CURVE ( 'NONE', #241, #244, #240, .T. ) ;
#357 = DIRECTION ( 'NONE',  ( 0.000000000000000000, 0.000000000000000000, 1.000000000000000000 ) ) ;
#358 = CARTESIAN_POINT ( 'NONE',  ( 0.000000000000000000, 12.50000000000000000, 0.000000000000000000 ) ) ;
#359 = CARTESIAN_POINT ( 'NONE',  ( 7.900000000000000355, 12.50000000000000000, 0.000000000000000000 ) ) ;
#360 = CARTESIAN_POINT ( 'NONE',  ( 4.000000000000000000, 5.500000000000000888, -23.42500000000000071 ) ) ;
#361 = DIRECTION ( 'NONE',  ( -1.000000000000000000, -0.000000000000000000, -0.000000000000000000 ) ) ;
#362 = FACE_OUTER_BOUND ( 'NONE', #314, .T. ) ;
#363 = CARTESIAN_POINT ( 'NONE',  ( 11.30000000000000071, 5.200000000000000178, -31.50000000000000000 ) ) ;
#364 = DIRECTION ( 'NONE',  ( -0.000000000000000000, -1.000000000000000000, -0.000000000000000000 ) ) ;
#365 = AXIS2_PLACEMENT_3D ( 'NONE', #296, #301, #397 ) ;
#366 = ADVANCED_FACE ( 'NONE', ( #31 ), #129, .F. ) ;
#367 = LINE ( 'NONE', #23, #123 ) ;
#368 = VERTEX_POINT ( 'NONE', #1 ) ;
#369 = PLANE ( 'NONE',  #165 ) ;
#370 = VERTEX_POINT ( 'NONE', #132 ) ;
#371 = ORIENTED_EDGE ( 'NONE', *, *, #391, .T. ) ;
#372 = CARTESIAN_POINT ( 'NONE',  ( 0.000000000000000000, 12.50000000000000000, -31.50000000000000000 ) ) ;
#373 = ORIENTED_EDGE ( 'NONE', *, *, #170, .F. ) ;
#374 = LINE ( 'NONE', #345, #402 ) ;
#375 = ORIENTED_EDGE ( 'NONE', *, *, #218, .T. ) ;
#376 = DIRECTION ( 'NONE',  ( 0.000000000000000000, 1.000000000000000000, 0.000000000000000000 ) ) ;
#377 = ORIENTED_EDGE ( 'NONE', *, *, #426, .F. ) ;
#378 = VECTOR ( 'NONE', #189, 1000.000000000000000 ) ;
#379 = EDGE_CURVE ( 'NONE', #54, #119, #272, .T. ) ;
#380 = DIRECTION ( 'NONE',  ( 0.000000000000000000, 1.000000000000000000, 0.000000000000000000 ) ) ;
#381 = ORIENTED_EDGE ( 'NONE', *, *, #188, .F. ) ;
#382 = CARTESIAN_POINT ( 'NONE',  ( 4.000000000000000000, 12.50000000000000000, -6.000000000000000000 ) ) ;
#383 = EDGE_LOOP ( 'NONE', ( #266, #171, #295, #411 ) ) ;
#384 = PLANE ( 'NONE',  #250 ) ;
#385 = ORIENTED_EDGE ( 'NONE', *, *, #399, .T. ) ;
#386 = DIRECTION ( 'NONE',  ( -0.000000000000000000, 0.000000000000000000, -1.000000000000000000 ) ) ;
#387 = LINE ( 'NONE', #254, #131 ) ;
#388 = CARTESIAN_POINT ( 'NONE',  ( 4.000000000000000000, 5.500000000000000888, -23.42500000000000071 ) ) ;
#389 =( GEOMETRIC_REPRESENTATION_CONTEXT ( 3 ) GLOBAL_UNCERTAINTY_ASSIGNED_CONTEXT ( ( #66 ) ) GLOBAL_UNIT_ASSIGNED_CONTEXT ( ( #141, #281, #324 ) ) REPRESENTATION_CONTEXT ( 'NONE', 'WORKASPACE' ) );
#390 = DIRECTION ( 'NONE',  ( 0.000000000000000000, 1.000000000000000000, 0.000000000000000000 ) ) ;
#391 = EDGE_CURVE ( 'NONE', #130, #368, #190, .T. ) ;
#392 = CARTESIAN_POINT ( 'NONE',  ( 11.30000000000000071, 5.200000000000000178, -5.999999999999998224 ) ) ;
#393 = DIRECTION ( 'NONE',  ( 0.000000000000000000, 0.000000000000000000, 1.000000000000000000 ) ) ;
#394 = EDGE_CURVE ( 'NONE', #174, #370, #40, .T. ) ;
#395 = CARTESIAN_POINT ( 'NONE',  ( 7.900000000000002132, 10.00000000000000000, -2.000000000000000000 ) ) ;
#396 = CARTESIAN_POINT ( 'NONE',  ( 7.900000000000000355, 12.50000000000000000, 0.000000000000000000 ) ) ;
#397 = DIRECTION ( 'NONE',  ( 0.000000000000000000, 0.000000000000000000, 1.000000000000000000 ) ) ;
#398 = VERTEX_POINT ( 'NONE', #252 ) ;
#399 = EDGE_CURVE ( 'NONE', #234, #29, #208, .T. ) ;
#400 = CARTESIAN_POINT ( 'NONE',  ( 11.30000000000000071, 0.000000000000000000, -31.50000000000000000 ) ) ;
#401 = PRODUCT ( 'battery_side', 'battery_side', '', ( #321 ) ) ;
#402 = VECTOR ( 'NONE', #28, 1000.000000000000000 ) ;
#403 = FACE_OUTER_BOUND ( 'NONE', #198, .T. ) ;
#404 = EDGE_LOOP ( 'NONE', ( #407, #65, #312, #373 ) ) ;
#405 = AXIS2_PLACEMENT_3D ( 'NONE', #271, #413, #309 ) ;
#406 = CARTESIAN_POINT ( 'NONE',  ( 7.900000000000002132, 5.200000000000000178, -31.50000000000000000 ) ) ;
#407 = ORIENTED_EDGE ( 'NONE', *, *, #286, .T. ) ;
#408 = CARTESIAN_POINT ( 'NONE',  ( 0.000000000000000000, 0.000000000000000000, -31.50000000000000000 ) ) ;
#409 = VERTEX_POINT ( 'NONE', #359 ) ;
#410 = DIRECTION ( 'NONE',  ( 0.000000000000000000, -1.000000000000000000, 0.000000000000000000 ) ) ;
#411 = ORIENTED_EDGE ( 'NONE', *, *, #219, .T. ) ;
#412 = PRODUCT_DEFINITION_CONTEXT ( 'detailed design', #162, 'design' ) ;
#413 = DIRECTION ( 'NONE',  ( -0.000000000000000000, 1.000000000000000000, -0.000000000000000000 ) ) ;
#414 = ORIENTED_EDGE ( 'NONE', *, *, #286, .F. ) ;
#415 = EDGE_CURVE ( 'NONE', #160, #243, #112, .T. ) ;
#416 = CARTESIAN_POINT ( 'NONE',  ( 4.000000000000000000, 5.500000000000000888, -6.000000000000000000 ) ) ;
#417 = ORIENTED_EDGE ( 'NONE', *, *, #30, .T. ) ;
#418 = DIRECTION ( 'NONE',  ( 0.000000000000000000, 0.000000000000000000, 1.000000000000000000 ) ) ;
#419 = AXIS2_PLACEMENT_3D ( 'NONE', #49, #257, #355 ) ;
#420 = ORIENTED_EDGE ( 'NONE', *, *, #30, .F. ) ;
#421 = EDGE_LOOP ( 'NONE', ( #7, #4 ) ) ;
#422 = VECTOR ( 'NONE', #18, 1000.000000000000000 ) ;
#423 = CYLINDRICAL_SURFACE ( 'NONE', #6, 2.075000000000000622 ) ;
#424 = VECTOR ( 'NONE', #100, 1000.000000000000114 ) ;
#425 = FACE_OUTER_BOUND ( 'NONE', #383, .T. ) ;
#426 = EDGE_CURVE ( 'NONE', #353, #174, #74, .T. ) ;
#427 = DIRECTION ( 'NONE',  ( -0.000000000000000000, 1.000000000000000000, -0.000000000000000000 ) ) ;
#428 = VECTOR ( 'NONE', #83, 1000.000000000000000 ) ;
#429 = EDGE_CURVE ( 'NONE', #21, #130, #138, .T. ) ;
#430 = CARTESIAN_POINT ( 'NONE',  ( 4.000000000000000000, 5.500000000000000888, -3.924999999999999822 ) ) ;
#431 = CARTESIAN_POINT ( 'NONE',  ( 7.900000000000002132, 5.200000000000000178, -31.50000000000000000 ) ) ;
#432 = AXIS2_PLACEMENT_3D ( 'NONE', #15, #142, #386 ) ;
#433 = DIRECTION ( 'NONE',  ( 0.000000000000000000, -0.000000000000000000, 1.000000000000000000 ) ) ;
#434 = ADVANCED_FACE ( 'NONE', ( #178 ), #384, .F. ) ;
#435 = FILL_AREA_STYLE_COLOUR ( '', #225 ) ;
#436 = ORIENTED_EDGE ( 'NONE', *, *, #219, .F. ) ;
#437 = FILL_AREA_STYLE ('',( #435 ) ) ;
#438 = CIRCLE ( 'NONE', #187, 2.075000000000000622 ) ;
#439 = CARTESIAN_POINT ( 'NONE',  ( 7.900000000000002132, 5.200000000000000178, -31.50000000000000000 ) ) ;
#440 = STYLED_ITEM ( 'NONE', ( #158 ), #152 ) ;
#441 = LINE ( 'NONE', #61, #424 ) ;
#442 = ORIENTED_EDGE ( 'NONE', *, *, #297, .F. ) ;
#443 = AXIS2_PLACEMENT_3D ( 'NONE', #303, #410, #242 ) ;
#444 = CARTESIAN_POINT ( 'NONE',  ( 4.000000000000000000, 5.500000000000000888, -25.50000000000000355 ) ) ;
#445 = EDGE_LOOP ( 'NONE', ( #200, #39 ) ) ;
#446 = EDGE_CURVE ( 'NONE', #370, #241, #387, .T. ) ;
ENDSEC;
END-ISO-10303-21;
