ISO-10303-21;
HEADER;
FILE_DESCRIPTION (( 'STEP AP214' ),
    '1' );
FILE_NAME ('oled_support.STEP',
    '2026-07-02T12:26:11',
    ( '' ),
    ( '' ),
    'SwSTEP 2.0',
    'SolidWorks 2025',
    '' );
FILE_SCHEMA (( 'AUTOMOTIVE_DESIGN' ));
ENDSEC;

DATA;
#1 = CARTESIAN_POINT ( 'NONE',  ( 0.000000000000000000, 0.000000000000000000, 0.000000000000000000 ) ) ;
#2 = PLANE ( 'NONE',  #177 ) ;
#3 = SHAPE_DEFINITION_REPRESENTATION ( #44, #96 ) ;
#4 = ORIENTED_EDGE ( 'NONE', *, *, #25, .T. ) ;
#5 = FILL_AREA_STYLE ('',( #32 ) ) ;
#6 = ORIENTED_EDGE ( 'NONE', *, *, #55, .F. ) ;
#7 = COLOUR_RGB ( '',0.7921568627450980005, 0.8196078431372548767, 0.9333333333333333481 ) ;
#8 = DIRECTION ( 'NONE',  ( 0.000000000000000000, -1.000000000000000000, 0.000000000000000000 ) ) ;
#9 = CARTESIAN_POINT ( 'NONE',  ( -3.000000000000000000, 0.000000000000000000, 0.000000000000000000 ) ) ;
#10 = CARTESIAN_POINT ( 'NONE',  ( -3.000000000000000000, 0.000000000000000000, 1.000000000000000000 ) ) ;
#11 = CARTESIAN_POINT ( 'NONE',  ( -3.000000000000000000, 25.00000000000000000, 0.000000000000000000 ) ) ;
#12 = CARTESIAN_POINT ( 'NONE',  ( 0.000000000000000000, 25.00000000000000000, 0.000000000000000000 ) ) ;
#13 = PRODUCT_DEFINITION_CONTEXT ( 'detailed design', #183, 'design' ) ;
#14 = ADVANCED_FACE ( 'NONE', ( #148 ), #18, .F. ) ;
#15 = ORIENTED_EDGE ( 'NONE', *, *, #28, .T. ) ;
#16 = ORIENTED_EDGE ( 'NONE', *, *, #19, .T. ) ;
#17 = MANIFOLD_SOLID_BREP ( 'Boss-Extrude1', #136 ) ;
#18 = PLANE ( 'NONE',  #145 ) ;
#19 = EDGE_CURVE ( 'NONE', #175, #161, #95, .T. ) ;
#20 = VECTOR ( 'NONE', #23, 1000.000000000000000 ) ;
#21 = FACE_OUTER_BOUND ( 'NONE', #174, .T. ) ;
#22 = CARTESIAN_POINT ( 'NONE',  ( 0.000000000000000000, 0.000000000000000000, 1.000000000000000000 ) ) ;
#23 = DIRECTION ( 'NONE',  ( -0.000000000000000000, -1.000000000000000000, -0.000000000000000000 ) ) ;
#24 = CARTESIAN_POINT ( 'NONE',  ( 0.000000000000000000, 0.000000000000000000, 1.000000000000000000 ) ) ;
#25 = EDGE_CURVE ( 'NONE', #48, #131, #173, .T. ) ;
#26 = DIRECTION ( 'NONE',  ( -0.000000000000000000, -0.000000000000000000, -1.000000000000000000 ) ) ;
#27 = APPLICATION_PROTOCOL_DEFINITION ( 'draft international standard', 'automotive_design', 1998, #162 ) ;
#28 = EDGE_CURVE ( 'NONE', #161, #172, #53, .T. ) ;
#29 = AXIS2_PLACEMENT_3D ( 'NONE', #94, #8, #151 ) ;
#30 =( GEOMETRIC_REPRESENTATION_CONTEXT ( 3 ) GLOBAL_UNCERTAINTY_ASSIGNED_CONTEXT ( ( #65 ) ) GLOBAL_UNIT_ASSIGNED_CONTEXT ( ( #39, #127, #69 ) ) REPRESENTATION_CONTEXT ( 'NONE', 'WORKASPACE' ) );
#31 = EDGE_LOOP ( 'NONE', ( #47, #46, #100, #4 ) ) ;
#32 = FILL_AREA_STYLE_COLOUR ( '', #7 ) ;
#33 = ORIENTED_EDGE ( 'NONE', *, *, #122, .F. ) ;
#34 = DIRECTION ( 'NONE',  ( 0.000000000000000000, 0.000000000000000000, 1.000000000000000000 ) ) ;
#35 = ORIENTED_EDGE ( 'NONE', *, *, #105, .F. ) ;
#36 = PLANE ( 'NONE',  #29 ) ;
#37 = CARTESIAN_POINT ( 'NONE',  ( 0.000000000000000000, 0.000000000000000000, 0.000000000000000000 ) ) ;
#38 = DIRECTION ( 'NONE',  ( -0.000000000000000000, -0.000000000000000000, -1.000000000000000000 ) ) ;
#39 =( LENGTH_UNIT ( ) NAMED_UNIT ( * ) SI_UNIT ( .MILLI., .METRE. ) );
#40 = DIRECTION ( 'NONE',  ( 0.000000000000000000, 0.000000000000000000, 1.000000000000000000 ) ) ;
#41 = STYLED_ITEM ( 'NONE', ( #107 ), #17 ) ;
#42 = APPLICATION_PROTOCOL_DEFINITION ( 'draft international standard', 'automotive_design', 1998, #183 ) ;
#43 = PRODUCT_CONTEXT ( 'NONE', #162, 'mechanical' ) ;
#44 = PRODUCT_DEFINITION_SHAPE ( 'NONE', 'NONE',  #74 ) ;
#45 = AXIS2_PLACEMENT_3D ( 'NONE', #128, #97, #154 ) ;
#46 = ORIENTED_EDGE ( 'NONE', *, *, #98, .T. ) ;
#47 = ORIENTED_EDGE ( 'NONE', *, *, #169, .T. ) ;
#48 = VERTEX_POINT ( 'NONE', #79 ) ;
#49 = VERTEX_POINT ( 'NONE', #51 ) ;
#50 = EDGE_CURVE ( 'NONE', #159, #104, #165, .T. ) ;
#51 = CARTESIAN_POINT ( 'NONE',  ( 0.000000000000000000, 25.00000000000000000, 1.000000000000000000 ) ) ;
#52 = DIRECTION ( 'NONE',  ( -0.000000000000000000, -1.000000000000000000, -0.000000000000000000 ) ) ;
#53 = LINE ( 'NONE', #137, #102 ) ;
#54 = DIRECTION ( 'NONE',  ( -1.000000000000000000, 0.000000000000000000, 0.000000000000000000 ) ) ;
#55 = EDGE_CURVE ( 'NONE', #131, #104, #126, .T. ) ;
#56 = DIRECTION ( 'NONE',  ( 0.000000000000000000, 0.000000000000000000, -1.000000000000000000 ) ) ;
#57 = CARTESIAN_POINT ( 'NONE',  ( 0.000000000000000000, 0.000000000000000000, 1.000000000000000000 ) ) ;
#58 = VECTOR ( 'NONE', #26, 1000.000000000000000 ) ;
#59 = VECTOR ( 'NONE', #108, 1000.000000000000000 ) ;
#60 = DIRECTION ( 'NONE',  ( 1.000000000000000000, 0.000000000000000000, 0.000000000000000000 ) ) ;
#61 = DIRECTION ( 'NONE',  ( 0.000000000000000000, 0.000000000000000000, 1.000000000000000000 ) ) ;
#62 = ORIENTED_EDGE ( 'NONE', *, *, #19, .F. ) ;
#63 = ORIENTED_EDGE ( 'NONE', *, *, #152, .F. ) ;
#64 = ORIENTED_EDGE ( 'NONE', *, *, #98, .F. ) ;
#65 = UNCERTAINTY_MEASURE_WITH_UNIT (LENGTH_MEASURE( 1.000000000000000082E-05 ), #39, 'distance_accuracy_value', 'NONE');
#66 = FACE_OUTER_BOUND ( 'NONE', #118, .T. ) ;
#67 = VECTOR ( 'NONE', #124, 1000.000000000000000 ) ;
#68 = SURFACE_STYLE_USAGE ( .BOTH. , #82 ) ;
#69 =( NAMED_UNIT ( * ) SI_UNIT ( $, .STERADIAN. ) SOLID_ANGLE_UNIT ( ) );
#70 = LINE ( 'NONE', #92, #111 ) ;
#71 = FACE_OUTER_BOUND ( 'NONE', #120, .T. ) ;
#72 = CARTESIAN_POINT ( 'NONE',  ( 0.000000000000000000, 0.000000000000000000, 1.000000000000000000 ) ) ;
#73 = PRODUCT ( 'oled_support', 'oled_support', '', ( #43 ) ) ;
#74 = PRODUCT_DEFINITION ( 'UNKNOWN', '', #87, #13 ) ;
#75 =( GEOMETRIC_REPRESENTATION_CONTEXT ( 3 ) GLOBAL_UNCERTAINTY_ASSIGNED_CONTEXT ( ( #113 ) ) GLOBAL_UNIT_ASSIGNED_CONTEXT ( ( #143, #115, #85 ) ) REPRESENTATION_CONTEXT ( 'NONE', 'WORKASPACE' ) );
#76 = PRODUCT_RELATED_PRODUCT_CATEGORY ( 'part', '', ( #73 ) ) ;
#77 = CARTESIAN_POINT ( 'NONE',  ( 0.000000000000000000, 0.000000000000000000, 1.000000000000000000 ) ) ;
#78 = ORIENTED_EDGE ( 'NONE', *, *, #156, .T. ) ;
#79 = CARTESIAN_POINT ( 'NONE',  ( -3.000000000000000000, 25.00000000000000000, 1.000000000000000000 ) ) ;
#80 = VECTOR ( 'NONE', #139, 1000.000000000000000 ) ;
#81 = VECTOR ( 'NONE', #52, 1000.000000000000000 ) ;
#82 = SURFACE_SIDE_STYLE ('',( #176 ) ) ;
#83 = DIRECTION ( 'NONE',  ( 1.000000000000000000, -0.000000000000000000, -0.000000000000000000 ) ) ;
#84 = CARTESIAN_POINT ( 'NONE',  ( -3.000000000000000000, 25.00000000000000000, 1.000000000000000000 ) ) ;
#85 =( NAMED_UNIT ( * ) SI_UNIT ( $, .STERADIAN. ) SOLID_ANGLE_UNIT ( ) );
#86 = ADVANCED_FACE ( 'NONE', ( #66 ), #36, .F. ) ;
#87 = PRODUCT_DEFINITION_FORMATION_WITH_SPECIFIED_SOURCE ( 'ANY', '', #73, .NOT_KNOWN. ) ;
#88 = EDGE_LOOP ( 'NONE', ( #123, #62, #119, #103 ) ) ;
#89 = EDGE_CURVE ( 'NONE', #104, #161, #181, .T. ) ;
#90 = EDGE_LOOP ( 'NONE', ( #134, #146, #35, #121 ) ) ;
#91 = ORIENTED_EDGE ( 'NONE', *, *, #50, .T. ) ;
#92 = CARTESIAN_POINT ( 'NONE',  ( 0.000000000000000000, 25.00000000000000000, 0.000000000000000000 ) ) ;
#93 = DIRECTION ( 'NONE',  ( -0.000000000000000000, -0.000000000000000000, -1.000000000000000000 ) ) ;
#94 = CARTESIAN_POINT ( 'NONE',  ( 0.000000000000000000, 25.00000000000000000, 1.000000000000000000 ) ) ;
#95 = LINE ( 'NONE', #163, #59 ) ;
#96 = ADVANCED_BREP_SHAPE_REPRESENTATION ( 'oled_support', ( #17, #158 ), #75 ) ;
#97 = DIRECTION ( 'NONE',  ( 0.000000000000000000, 0.000000000000000000, -1.000000000000000000 ) ) ;
#98 = EDGE_CURVE ( 'NONE', #175, #49, #106, .T. ) ;
#99 = CARTESIAN_POINT ( 'NONE',  ( 0.000000000000000000, 0.000000000000000000, 0.000000000000000000 ) ) ;
#100 = ORIENTED_EDGE ( 'NONE', *, *, #152, .T. ) ;
#101 = VECTOR ( 'NONE', #93, 1000.000000000000000 ) ;
#102 = VECTOR ( 'NONE', #185, 1000.000000000000000 ) ;
#103 = ORIENTED_EDGE ( 'NONE', *, *, #55, .T. ) ;
#104 = VERTEX_POINT ( 'NONE', #9 ) ;
#105 = EDGE_CURVE ( 'NONE', #172, #159, #70, .T. ) ;
#106 = LINE ( 'NONE', #22, #80 ) ;
#107 = PRESENTATION_STYLE_ASSIGNMENT (( #68 ) ) ;
#108 = DIRECTION ( 'NONE',  ( -0.000000000000000000, -0.000000000000000000, -1.000000000000000000 ) ) ;
#109 = LINE ( 'NONE', #140, #101 ) ;
#110 = LINE ( 'NONE', #167, #67 ) ;
#111 = VECTOR ( 'NONE', #184, 1000.000000000000000 ) ;
#112 = PRESENTATION_LAYER_ASSIGNMENT (  '', '', ( #41 ) ) ;
#113 = UNCERTAINTY_MEASURE_WITH_UNIT (LENGTH_MEASURE( 1.000000000000000082E-05 ), #143, 'distance_accuracy_value', 'NONE');
#114 = FACE_OUTER_BOUND ( 'NONE', #90, .T. ) ;
#115 =( NAMED_UNIT ( * ) PLANE_ANGLE_UNIT ( ) SI_UNIT ( $, .RADIAN. ) );
#116 = LINE ( 'NONE', #84, #58 ) ;
#117 = ADVANCED_FACE ( 'NONE', ( #21 ), #164, .F. ) ;
#118 = EDGE_LOOP ( 'NONE', ( #157, #147, #63, #132 ) ) ;
#119 = ORIENTED_EDGE ( 'NONE', *, *, #169, .F. ) ;
#120 = EDGE_LOOP ( 'NONE', ( #91, #6, #160, #78 ) ) ;
#121 = ORIENTED_EDGE ( 'NONE', *, *, #28, .F. ) ;
#122 = EDGE_CURVE ( 'NONE', #49, #172, #109, .T. ) ;
#123 = ORIENTED_EDGE ( 'NONE', *, *, #89, .T. ) ;
#124 = DIRECTION ( 'NONE',  ( -1.000000000000000000, 0.000000000000000000, 0.000000000000000000 ) ) ;
#125 = CARTESIAN_POINT ( 'NONE',  ( -3.000000000000000000, 0.000000000000000000, 1.000000000000000000 ) ) ;
#126 = LINE ( 'NONE', #125, #130 ) ;
#127 =( NAMED_UNIT ( * ) PLANE_ANGLE_UNIT ( ) SI_UNIT ( $, .RADIAN. ) );
#128 = CARTESIAN_POINT ( 'NONE',  ( 0.000000000000000000, 0.000000000000000000, 1.000000000000000000 ) ) ;
#129 = VECTOR ( 'NONE', #168, 1000.000000000000000 ) ;
#130 = VECTOR ( 'NONE', #38, 1000.000000000000000 ) ;
#131 = VERTEX_POINT ( 'NONE', #10 ) ;
#132 = ORIENTED_EDGE ( 'NONE', *, *, #122, .T. ) ;
#133 = DIRECTION ( 'NONE',  ( 0.000000000000000000, 1.000000000000000000, -0.000000000000000000 ) ) ;
#134 = ORIENTED_EDGE ( 'NONE', *, *, #89, .F. ) ;
#135 = AXIS2_PLACEMENT_3D ( 'NONE', #150, #138, #56 ) ;
#136 = CLOSED_SHELL ( 'NONE', ( #14, #117, #86, #149, #186, #179 ) ) ;
#137 = CARTESIAN_POINT ( 'NONE',  ( 0.000000000000000000, 0.000000000000000000, 0.000000000000000000 ) ) ;
#138 = DIRECTION ( 'NONE',  ( 1.000000000000000000, 0.000000000000000000, 0.000000000000000000 ) ) ;
#139 = DIRECTION ( 'NONE',  ( 0.000000000000000000, 1.000000000000000000, 0.000000000000000000 ) ) ;
#140 = CARTESIAN_POINT ( 'NONE',  ( 0.000000000000000000, 25.00000000000000000, 1.000000000000000000 ) ) ;
#141 = DIRECTION ( 'NONE',  ( -1.000000000000000000, 0.000000000000000000, -0.000000000000000000 ) ) ;
#142 = LINE ( 'NONE', #57, #129 ) ;
#143 =( LENGTH_UNIT ( ) NAMED_UNIT ( * ) SI_UNIT ( .MILLI., .METRE. ) );
#144 = VECTOR ( 'NONE', #83, 1000.000000000000000 ) ;
#145 = AXIS2_PLACEMENT_3D ( 'NONE', #77, #133, #34 ) ;
#146 = ORIENTED_EDGE ( 'NONE', *, *, #50, .F. ) ;
#147 = ORIENTED_EDGE ( 'NONE', *, *, #156, .F. ) ;
#148 = FACE_OUTER_BOUND ( 'NONE', #88, .T. ) ;
#149 = ADVANCED_FACE ( 'NONE', ( #71 ), #180, .F. ) ;
#150 = CARTESIAN_POINT ( 'NONE',  ( -3.000000000000000000, 0.000000000000000000, 1.000000000000000000 ) ) ;
#151 = DIRECTION ( 'NONE',  ( 0.000000000000000000, -0.000000000000000000, -1.000000000000000000 ) ) ;
#152 = EDGE_CURVE ( 'NONE', #49, #48, #110, .T. ) ;
#153 = DIRECTION ( 'NONE',  ( 0.000000000000000000, 0.000000000000000000, -1.000000000000000000 ) ) ;
#154 = DIRECTION ( 'NONE',  ( -1.000000000000000000, 0.000000000000000000, -0.000000000000000000 ) ) ;
#155 = CARTESIAN_POINT ( 'NONE',  ( 0.000000000000000000, 0.000000000000000000, 0.000000000000000000 ) ) ;
#156 = EDGE_CURVE ( 'NONE', #48, #159, #116, .T. ) ;
#157 = ORIENTED_EDGE ( 'NONE', *, *, #105, .T. ) ;
#158 = AXIS2_PLACEMENT_3D ( 'NONE', #1, #61, #60 ) ;
#159 = VERTEX_POINT ( 'NONE', #11 ) ;
#160 = ORIENTED_EDGE ( 'NONE', *, *, #25, .F. ) ;
#161 = VERTEX_POINT ( 'NONE', #99 ) ;
#162 = APPLICATION_CONTEXT ( 'automotive_design' ) ;
#163 = CARTESIAN_POINT ( 'NONE',  ( 0.000000000000000000, 0.000000000000000000, 1.000000000000000000 ) ) ;
#164 = PLANE ( 'NONE',  #187 ) ;
#165 = LINE ( 'NONE', #166, #20 ) ;
#166 = CARTESIAN_POINT ( 'NONE',  ( -3.000000000000000000, 0.000000000000000000, 0.000000000000000000 ) ) ;
#167 = CARTESIAN_POINT ( 'NONE',  ( 0.000000000000000000, 25.00000000000000000, 1.000000000000000000 ) ) ;
#168 = DIRECTION ( 'NONE',  ( 1.000000000000000000, -0.000000000000000000, -0.000000000000000000 ) ) ;
#169 = EDGE_CURVE ( 'NONE', #131, #175, #142, .T. ) ;
#170 = FACE_OUTER_BOUND ( 'NONE', #31, .T. ) ;
#171 = PLANE ( 'NONE',  #45 ) ;
#172 = VERTEX_POINT ( 'NONE', #12 ) ;
#173 = LINE ( 'NONE', #182, #81 ) ;
#174 = EDGE_LOOP ( 'NONE', ( #15, #33, #64, #16 ) ) ;
#175 = VERTEX_POINT ( 'NONE', #72 ) ;
#176 = SURFACE_STYLE_FILL_AREA ( #5 ) ;
#177 = AXIS2_PLACEMENT_3D ( 'NONE', #155, #153, #141 ) ;
#178 = MECHANICAL_DESIGN_GEOMETRIC_PRESENTATION_REPRESENTATION (  '', ( #41 ), #30 ) ;
#179 = ADVANCED_FACE ( 'NONE', ( #114 ), #2, .T. ) ;
#180 = PLANE ( 'NONE',  #135 ) ;
#181 = LINE ( 'NONE', #37, #144 ) ;
#182 = CARTESIAN_POINT ( 'NONE',  ( -3.000000000000000000, 0.000000000000000000, 1.000000000000000000 ) ) ;
#183 = APPLICATION_CONTEXT ( 'automotive_design' ) ;
#184 = DIRECTION ( 'NONE',  ( -1.000000000000000000, 0.000000000000000000, 0.000000000000000000 ) ) ;
#185 = DIRECTION ( 'NONE',  ( 0.000000000000000000, 1.000000000000000000, 0.000000000000000000 ) ) ;
#186 = ADVANCED_FACE ( 'NONE', ( #170 ), #171, .F. ) ;
#187 = AXIS2_PLACEMENT_3D ( 'NONE', #24, #54, #40 ) ;
ENDSEC;
END-ISO-10303-21;
