ISO-10303-21;
HEADER;
FILE_DESCRIPTION (( 'STEP AP214' ),
    '1' );
FILE_NAME ('washer.STEP',
    '2026-01-22T23:29:03',
    ( '' ),
    ( '' ),
    'SwSTEP 2.0',
    'SolidWorks 2025',
    '' );
FILE_SCHEMA (( 'AUTOMOTIVE_DESIGN' ));
ENDSEC;

DATA;
#1 = CARTESIAN_POINT ( 'NONE',  ( -3.200000000000005063, 3.918869757271536377E-16, 2.750000000000000000 ) ) ;
#2 = DIRECTION ( 'NONE',  ( 0.000000000000000000, 0.000000000000000000, 1.000000000000000000 ) ) ;
#3 = FACE_OUTER_BOUND ( 'NONE', #56, .T. ) ;
#4 = CIRCLE ( 'NONE', #168, 1.650000000000000133 ) ;
#5 = EDGE_CURVE ( 'NONE', #35, #9, #250, .T. ) ;
#6 = DIRECTION ( 'NONE',  ( 1.224646799147353207E-16, 1.000000000000000000, -0.000000000000000000 ) ) ;
#7 = CARTESIAN_POINT ( 'NONE',  ( -1.650000000000000133, 0.000000000000000000, 0.000000000000000000 ) ) ;
#8 = CARTESIAN_POINT ( 'NONE',  ( 0.000000000000000000, 0.000000000000000000, 1.200000000000002176 ) ) ;
#9 = VERTEX_POINT ( 'NONE', #247 ) ;
#10 = AXIS2_PLACEMENT_3D ( 'NONE', #186, #119, #55 ) ;
#11 = CARTESIAN_POINT ( 'NONE',  ( 4.999999999999999112, 6.123233995736765296E-16, 1.749999999999999778 ) ) ;
#12 = ORIENTED_EDGE ( 'NONE', *, *, #213, .F. ) ;
#13 = CARTESIAN_POINT ( 'NONE',  ( -1.650000000000000133, 2.020667218593133001E-16, 1.200000000000002176 ) ) ;
#14 = ORIENTED_EDGE ( 'NONE', *, *, #148, .T. ) ;
#15 = ORIENTED_EDGE ( 'NONE', *, *, #278, .T. ) ;
#16 = AXIS2_PLACEMENT_3D ( 'NONE', #158, #2, #275 ) ;
#17 = DIRECTION ( 'NONE',  ( -1.000000000000000000, 0.000000000000000000, 0.000000000000000000 ) ) ;
#18 = ORIENTED_EDGE ( 'NONE', *, *, #99, .T. ) ;
#19 = ORIENTED_EDGE ( 'NONE', *, *, #90, .T. ) ;
#20 = ORIENTED_EDGE ( 'NONE', *, *, #40, .T. ) ;
#21 = DIRECTION ( 'NONE',  ( 1.000000000000000000, 0.000000000000000000, 0.000000000000000000 ) ) ;
#22 = EDGE_CURVE ( 'NONE', #146, #293, #281, .T. ) ;
#23 = DIRECTION ( 'NONE',  ( 0.000000000000000000, 0.000000000000000000, 1.000000000000000000 ) ) ;
#24 = DIRECTION ( 'NONE',  ( 0.000000000000000000, 0.000000000000000000, 1.000000000000000000 ) ) ;
#25 = PLANE ( 'NONE',  #185 ) ;
#26 = FACE_BOUND ( 'NONE', #107, .T. ) ;
#27 = CARTESIAN_POINT ( 'NONE',  ( 0.000000000000000000, 0.000000000000000000, 2.750000000000000000 ) ) ;
#28 = CIRCLE ( 'NONE', #120, 4.999999999999999112 ) ;
#29 = FACE_OUTER_BOUND ( 'NONE', #172, .T. ) ;
#30 = VERTEX_POINT ( 'NONE', #273 ) ;
#31 = SURFACE_SIDE_STYLE ('',( #94 ) ) ;
#32 = ADVANCED_FACE ( 'NONE', ( #170 ), #173, .F. ) ;
#33 = VECTOR ( 'NONE', #137, 1000.000000000000000 ) ;
#34 =( NAMED_UNIT ( * ) SI_UNIT ( $, .STERADIAN. ) SOLID_ANGLE_UNIT ( ) );
#35 = VERTEX_POINT ( 'NONE', #274 ) ;
#36 = DIRECTION ( 'NONE',  ( 1.000000000000000000, 0.000000000000000000, 0.000000000000000000 ) ) ;
#37 = CYLINDRICAL_SURFACE ( 'NONE', #296, 1.650000000000000133 ) ;
#38 = CIRCLE ( 'NONE', #52, 1.650000000000000133 ) ;
#39 = ORIENTED_EDGE ( 'NONE', *, *, #194, .F. ) ;
#40 = EDGE_CURVE ( 'NONE', #175, #145, #229, .T. ) ;
#41 = CARTESIAN_POINT ( 'NONE',  ( 0.000000000000000000, 0.000000000000000000, 0.000000000000000000 ) ) ;
#42 = ORIENTED_EDGE ( 'NONE', *, *, #40, .F. ) ;
#43 = DIRECTION ( 'NONE',  ( 0.000000000000000000, 0.000000000000000000, 1.000000000000000000 ) ) ;
#44 = DIRECTION ( 'NONE',  ( 0.000000000000000000, 0.000000000000000000, 1.000000000000000000 ) ) ;
#45 = PLANE ( 'NONE',  #16 ) ;
#46 = DIRECTION ( 'NONE',  ( -0.000000000000000000, -0.000000000000000000, -1.000000000000000000 ) ) ;
#47 = MECHANICAL_DESIGN_GEOMETRIC_PRESENTATION_REPRESENTATION (  '', ( #270 ), #92 ) ;
#48 = AXIS2_PLACEMENT_3D ( 'NONE', #207, #78, #166 ) ;
#49 = CARTESIAN_POINT ( 'NONE',  ( 4.999999999999999112, 6.123233995736765296E-16, 2.750000000000000000 ) ) ;
#50 = ADVANCED_FACE ( 'NONE', ( #244 ), #37, .F. ) ;
#51 = DIRECTION ( 'NONE',  ( -0.7071067811865491270, 8.659560562354952580E-17, 0.7071067811865459074 ) ) ;
#52 = AXIS2_PLACEMENT_3D ( 'NONE', #154, #202, #66 ) ;
#53 = ORIENTED_EDGE ( 'NONE', *, *, #5, .T. ) ;
#54 =( LENGTH_UNIT ( ) NAMED_UNIT ( * ) SI_UNIT ( .MILLI., .METRE. ) );
#55 = DIRECTION ( 'NONE',  ( -1.000000000000000000, 0.000000000000000000, 0.000000000000000000 ) ) ;
#56 = EDGE_LOOP ( 'NONE', ( #39, #14, #19, #81 ) ) ;
#57 = ORIENTED_EDGE ( 'NONE', *, *, #245, .F. ) ;
#58 = EDGE_LOOP ( 'NONE', ( #297, #221, #12, #163 ) ) ;
#59 = EDGE_CURVE ( 'NONE', #35, #85, #192, .T. ) ;
#60 = DIRECTION ( 'NONE',  ( 1.000000000000000000, 0.000000000000000000, 0.000000000000000000 ) ) ;
#61 = FACE_OUTER_BOUND ( 'NONE', #58, .T. ) ;
#62 = AXIS2_PLACEMENT_3D ( 'NONE', #300, #88, #134 ) ;
#63 = ADVANCED_FACE ( 'NONE', ( #61 ), #117, .T. ) ;
#64 = ORIENTED_EDGE ( 'NONE', *, *, #254, .T. ) ;
#65 = DIRECTION ( 'NONE',  ( 0.000000000000000000, 0.000000000000000000, 1.000000000000000000 ) ) ;
#66 = DIRECTION ( 'NONE',  ( 1.000000000000000000, 0.000000000000000000, 0.000000000000000000 ) ) ;
#67 = EDGE_CURVE ( 'NONE', #293, #146, #190, .T. ) ;
#68 = TOROIDAL_SURFACE ( 'NONE', #139, 3.999999999999999112, 1.000000000000000000 ) ;
#69 = DIRECTION ( 'NONE',  ( 1.000000000000000000, 0.000000000000000000, 0.000000000000000000 ) ) ;
#70 = FACE_OUTER_BOUND ( 'NONE', #212, .T. ) ;
#71 = EDGE_CURVE ( 'NONE', #85, #258, #38, .T. ) ;
#72 = CIRCLE ( 'NONE', #239, 1.000000000000000000 ) ;
#73 = DIRECTION ( 'NONE',  ( 1.000000000000000000, 0.000000000000000000, 0.000000000000000000 ) ) ;
#74 = DIRECTION ( 'NONE',  ( -1.000000000000000000, 0.000000000000000000, 0.000000000000000000 ) ) ;
#75 = CARTESIAN_POINT ( 'NONE',  ( -3.999999999999999112, 4.898587196589411843E-16, 1.749999999999999778 ) ) ;
#76 = ORIENTED_EDGE ( 'NONE', *, *, #144, .F. ) ;
#77 = CIRCLE ( 'NONE', #97, 3.999999999999999112 ) ;
#78 = DIRECTION ( 'NONE',  ( 0.000000000000000000, -1.000000000000000000, 0.000000000000000000 ) ) ;
#79 =( NAMED_UNIT ( * ) SI_UNIT ( $, .STERADIAN. ) SOLID_ANGLE_UNIT ( ) );
#80 = ORIENTED_EDGE ( 'NONE', *, *, #148, .F. ) ;
#81 = ORIENTED_EDGE ( 'NONE', *, *, #67, .T. ) ;
#82 = EDGE_CURVE ( 'NONE', #258, #85, #234, .T. ) ;
#83 = DIRECTION ( 'NONE',  ( 0.000000000000000000, 0.000000000000000000, 1.000000000000000000 ) ) ;
#84 = AXIS2_PLACEMENT_3D ( 'NONE', #136, #252, #87 ) ;
#85 = VERTEX_POINT ( 'NONE', #108 ) ;
#86 = ORIENTED_EDGE ( 'NONE', *, *, #282, .T. ) ;
#87 = DIRECTION ( 'NONE',  ( 1.000000000000000000, 0.000000000000000000, 0.000000000000000000 ) ) ;
#88 = DIRECTION ( 'NONE',  ( 0.000000000000000000, 0.000000000000000000, 1.000000000000000000 ) ) ;
#89 = DIRECTION ( 'NONE',  ( 1.000000000000000000, 0.000000000000000000, 0.000000000000000000 ) ) ;
#90 = EDGE_CURVE ( 'NONE', #30, #293, #299, .T. ) ;
#91 = CARTESIAN_POINT ( 'NONE',  ( 3.999999999999999112, 0.000000000000000000, 2.750000000000000000 ) ) ;
#92 =( GEOMETRIC_REPRESENTATION_CONTEXT ( 3 ) GLOBAL_UNCERTAINTY_ASSIGNED_CONTEXT ( ( #111 ) ) GLOBAL_UNIT_ASSIGNED_CONTEXT ( ( #54, #241, #34 ) ) REPRESENTATION_CONTEXT ( 'NONE', 'WORKASPACE' ) );
#93 = CARTESIAN_POINT ( 'NONE',  ( 0.000000000000000000, 0.000000000000000000, 2.750000000000000000 ) ) ;
#94 = SURFACE_STYLE_FILL_AREA ( #283 ) ;
#95 = DIRECTION ( 'NONE',  ( -0.000000000000000000, -0.000000000000000000, -1.000000000000000000 ) ) ;
#96 = DIRECTION ( 'NONE',  ( -0.000000000000000000, -0.000000000000000000, -1.000000000000000000 ) ) ;
#97 = AXIS2_PLACEMENT_3D ( 'NONE', #228, #24, #115 ) ;
#98 = ORIENTED_EDGE ( 'NONE', *, *, #82, .F. ) ;
#99 = EDGE_CURVE ( 'NONE', #30, #287, #28, .T. ) ;
#100 = ORIENTED_EDGE ( 'NONE', *, *, #71, .F. ) ;
#101 = EDGE_LOOP ( 'NONE', ( #18, #272, #219, #290 ) ) ;
#102 = CIRCLE ( 'NONE', #155, 4.999999999999999112 ) ;
#103 = CARTESIAN_POINT ( 'NONE',  ( 0.000000000000000000, 0.000000000000000000, 1.200000000000002176 ) ) ;
#104 = VERTEX_POINT ( 'NONE', #1 ) ;
#105 = ORIENTED_EDGE ( 'NONE', *, *, #59, .T. ) ;
#106 = COLOUR_RGB ( '',0.7921568627450980005, 0.8196078431372548767, 0.9333333333333333481 ) ;
#107 = EDGE_LOOP ( 'NONE', ( #238, #171 ) ) ;
#108 = CARTESIAN_POINT ( 'NONE',  ( 1.650000000000000133, 2.020667218593133001E-16, 0.000000000000000000 ) ) ;
#109 = PRODUCT_DEFINITION_SHAPE ( 'NONE', 'NONE',  #116 ) ;
#110 = CARTESIAN_POINT ( 'NONE',  ( 0.000000000000000000, 0.000000000000000000, 1.749999999999999778 ) ) ;
#111 = UNCERTAINTY_MEASURE_WITH_UNIT (LENGTH_MEASURE( 1.000000000000000082E-05 ), #54, 'distance_accuracy_value', 'NONE');
#112 = CLOSED_SHELL ( 'NONE', ( #63, #32, #50, #268, #198, #184, #218, #225, #208, #174 ) ) ;
#113 = FACE_OUTER_BOUND ( 'NONE', #295, .T. ) ;
#114 = CARTESIAN_POINT ( 'NONE',  ( 0.000000000000000000, 0.000000000000000000, 0.000000000000000000 ) ) ;
#115 = DIRECTION ( 'NONE',  ( 1.000000000000000000, 0.000000000000000000, 0.000000000000000000 ) ) ;
#116 = PRODUCT_DEFINITION ( 'UNKNOWN', '', #224, #216 ) ;
#117 = TOROIDAL_SURFACE ( 'NONE', #160, 3.999999999999999112, 1.000000000000000000 ) ;
#118 = ORIENTED_EDGE ( 'NONE', *, *, #67, .F. ) ;
#119 = DIRECTION ( 'NONE',  ( -0.000000000000000000, -0.000000000000000000, -1.000000000000000000 ) ) ;
#120 = AXIS2_PLACEMENT_3D ( 'NONE', #179, #46, #130 ) ;
#121 = APPLICATION_CONTEXT ( 'automotive_design' ) ;
#122 = DIRECTION ( 'NONE',  ( 0.000000000000000000, 0.000000000000000000, 1.000000000000000000 ) ) ;
#123 = CARTESIAN_POINT ( 'NONE',  ( 0.000000000000000000, 0.000000000000000000, 2.750000000000000000 ) ) ;
#124 = AXIS2_PLACEMENT_3D ( 'NONE', #41, #197, #36 ) ;
#125 = ORIENTED_EDGE ( 'NONE', *, *, #5, .F. ) ;
#126 = ORIENTED_EDGE ( 'NONE', *, *, #213, .T. ) ;
#127 = ORIENTED_EDGE ( 'NONE', *, *, #254, .F. ) ;
#128 = AXIS2_PLACEMENT_3D ( 'NONE', #267, #65, #298 ) ;
#129 = CIRCLE ( 'NONE', #48, 1.000000000000000000 ) ;
#130 = DIRECTION ( 'NONE',  ( 1.000000000000000000, 0.000000000000000000, 0.000000000000000000 ) ) ;
#131 = UNCERTAINTY_MEASURE_WITH_UNIT (LENGTH_MEASURE( 1.000000000000000082E-05 ), #140, 'distance_accuracy_value', 'NONE');
#132 = CARTESIAN_POINT ( 'NONE',  ( -4.999999999999999112, 0.000000000000000000, 2.750000000000000000 ) ) ;
#133 = EDGE_CURVE ( 'NONE', #215, #104, #301, .T. ) ;
#134 = DIRECTION ( 'NONE',  ( 1.000000000000000000, 0.000000000000000000, 0.000000000000000000 ) ) ;
#135 = VECTOR ( 'NONE', #177, 1000.000000000000000 ) ;
#136 = CARTESIAN_POINT ( 'NONE',  ( 0.000000000000000000, 0.000000000000000000, 2.750000000000000000 ) ) ;
#137 = DIRECTION ( 'NONE',  ( 0.7071067811865491270, 0.000000000000000000, 0.7071067811865459074 ) ) ;
#138 = SURFACE_STYLE_USAGE ( .BOTH. , #31 ) ;
#139 = AXIS2_PLACEMENT_3D ( 'NONE', #180, #230, #21 ) ;
#140 =( LENGTH_UNIT ( ) NAMED_UNIT ( * ) SI_UNIT ( .MILLI., .METRE. ) );
#141 = ORIENTED_EDGE ( 'NONE', *, *, #133, .F. ) ;
#142 = FACE_OUTER_BOUND ( 'NONE', #101, .T. ) ;
#143 = FILL_AREA_STYLE_COLOUR ( '', #106 ) ;
#144 = EDGE_CURVE ( 'NONE', #35, #215, #280, .T. ) ;
#145 = VERTEX_POINT ( 'NONE', #91 ) ;
#146 = VERTEX_POINT ( 'NONE', #256 ) ;
#147 = CARTESIAN_POINT ( 'NONE',  ( 0.000000000000000000, 0.000000000000000000, 2.750000000000000000 ) ) ;
#148 = EDGE_CURVE ( 'NONE', #287, #30, #102, .T. ) ;
#149 = ORIENTED_EDGE ( 'NONE', *, *, #282, .F. ) ;
#150 = AXIS2_PLACEMENT_3D ( 'NONE', #147, #122, #60 ) ;
#151 = EDGE_LOOP ( 'NONE', ( #126, #20 ) ) ;
#152 = APPLICATION_PROTOCOL_DEFINITION ( 'draft international standard', 'automotive_design', 1998, #266 ) ;
#153 = EDGE_LOOP ( 'NONE', ( #191, #265 ) ) ;
#154 = CARTESIAN_POINT ( 'NONE',  ( 0.000000000000000000, 0.000000000000000000, 0.000000000000000000 ) ) ;
#155 = AXIS2_PLACEMENT_3D ( 'NONE', #110, #226, #277 ) ;
#156 = AXIS2_PLACEMENT_3D ( 'NONE', #27, #96, #286 ) ;
#157 = DIRECTION ( 'NONE',  ( -0.000000000000000000, -0.000000000000000000, -1.000000000000000000 ) ) ;
#158 = CARTESIAN_POINT ( 'NONE',  ( 0.000000000000000000, 0.000000000000000000, 2.750000000000000000 ) ) ;
#159 = DIRECTION ( 'NONE',  ( 1.000000000000000000, 0.000000000000000000, 0.000000000000000000 ) ) ;
#160 = AXIS2_PLACEMENT_3D ( 'NONE', #255, #43, #89 ) ;
#161 = DIRECTION ( 'NONE',  ( 0.000000000000000000, 0.000000000000000000, 1.000000000000000000 ) ) ;
#162 = PRESENTATION_STYLE_ASSIGNMENT (( #138 ) ) ;
#163 = ORIENTED_EDGE ( 'NONE', *, *, #278, .F. ) ;
#164 = CARTESIAN_POINT ( 'NONE',  ( 0.000000000000000000, 0.000000000000000000, 2.750000000000000000 ) ) ;
#165 = EDGE_CURVE ( 'NONE', #104, #215, #182, .T. ) ;
#166 = DIRECTION ( 'NONE',  ( 0.000000000000000000, 0.000000000000000000, -1.000000000000000000 ) ) ;
#167 = LINE ( 'NONE', #210, #263 ) ;
#168 = AXIS2_PLACEMENT_3D ( 'NONE', #8, #237, #187 ) ;
#169 = AXIS2_PLACEMENT_3D ( 'NONE', #292, #222, #220 ) ;
#170 = FACE_OUTER_BOUND ( 'NONE', #223, .T. ) ;
#171 = ORIENTED_EDGE ( 'NONE', *, *, #71, .T. ) ;
#172 = EDGE_LOOP ( 'NONE', ( #233, #53, #243, #100 ) ) ;
#173 = CONICAL_SURFACE ( 'NONE', #128, 1.650000000000000133, 0.7853981633974506105 ) ;
#174 = ADVANCED_FACE ( 'NONE', ( #113 ), #68, .T. ) ;
#175 = VERTEX_POINT ( 'NONE', #279 ) ;
#176 = DIRECTION ( 'NONE',  ( 1.000000000000000000, 0.000000000000000000, 0.000000000000000000 ) ) ;
#177 = DIRECTION ( 'NONE',  ( -0.000000000000000000, -0.000000000000000000, -1.000000000000000000 ) ) ;
#178 = VECTOR ( 'NONE', #269, 1000.000000000000000 ) ;
#179 = CARTESIAN_POINT ( 'NONE',  ( 0.000000000000000000, 0.000000000000000000, 1.749999999999999778 ) ) ;
#180 = CARTESIAN_POINT ( 'NONE',  ( 0.000000000000000000, 0.000000000000000000, 1.749999999999999778 ) ) ;
#181 = DIRECTION ( 'NONE',  ( -0.000000000000000000, -0.000000000000000000, -1.000000000000000000 ) ) ;
#182 = CIRCLE ( 'NONE', #276, 3.200000000000005063 ) ;
#183 = CYLINDRICAL_SURFACE ( 'NONE', #196, 4.999999999999999112 ) ;
#184 = ADVANCED_FACE ( 'NONE', ( #70, #26 ), #25, .F. ) ;
#185 = AXIS2_PLACEMENT_3D ( 'NONE', #114, #161, #253 ) ;
#186 = CARTESIAN_POINT ( 'NONE',  ( 0.000000000000000000, 0.000000000000000000, 2.750000000000000000 ) ) ;
#187 = DIRECTION ( 'NONE',  ( 1.000000000000000000, 0.000000000000000000, 0.000000000000000000 ) ) ;
#188 = ORIENTED_EDGE ( 'NONE', *, *, #144, .T. ) ;
#189 = ADVANCED_BREP_SHAPE_REPRESENTATION ( 'washer', ( #242, #169 ), #240 ) ;
#190 = CIRCLE ( 'NONE', #211, 4.999999999999999112 ) ;
#191 = ORIENTED_EDGE ( 'NONE', *, *, #133, .T. ) ;
#192 = LINE ( 'NONE', #294, #178 ) ;
#193 = EDGE_LOOP ( 'NONE', ( #149, #125, #188, #209 ) ) ;
#194 = EDGE_CURVE ( 'NONE', #287, #146, #199, .T. ) ;
#195 = EDGE_LOOP ( 'NONE', ( #64, #105, #98, #57 ) ) ;
#196 = AXIS2_PLACEMENT_3D ( 'NONE', #164, #95, #74 ) ;
#197 = DIRECTION ( 'NONE',  ( 0.000000000000000000, 0.000000000000000000, 1.000000000000000000 ) ) ;
#198 = ADVANCED_FACE ( 'NONE', ( #231, #200 ), #45, .T. ) ;
#199 = LINE ( 'NONE', #49, #135 ) ;
#200 = FACE_BOUND ( 'NONE', #153, .T. ) ;
#201 = CONICAL_SURFACE ( 'NONE', #62, 1.650000000000000133, 0.7853981633974506105 ) ;
#202 = DIRECTION ( 'NONE',  ( 0.000000000000000000, 0.000000000000000000, 1.000000000000000000 ) ) ;
#203 = FACE_OUTER_BOUND ( 'NONE', #193, .T. ) ;
#204 = CARTESIAN_POINT ( 'NONE',  ( 3.200000000000005063, 0.000000000000000000, 2.750000000000000000 ) ) ;
#205 = PRESENTATION_LAYER_ASSIGNMENT (  '', '', ( #270 ) ) ;
#206 = APPLICATION_PROTOCOL_DEFINITION ( 'draft international standard', 'automotive_design', 1998, #121 ) ;
#207 = CARTESIAN_POINT ( 'NONE',  ( 3.999999999999999112, 0.000000000000000000, 1.749999999999999778 ) ) ;
#208 = ADVANCED_FACE ( 'NONE', ( #203 ), #201, .F. ) ;
#209 = ORIENTED_EDGE ( 'NONE', *, *, #165, .F. ) ;
#210 = CARTESIAN_POINT ( 'NONE',  ( -1.650000000000000133, 0.000000000000000000, 2.750000000000000000 ) ) ;
#211 = AXIS2_PLACEMENT_3D ( 'NONE', #246, #23, #159 ) ;
#212 = EDGE_LOOP ( 'NONE', ( #118, #248 ) ) ;
#213 = EDGE_CURVE ( 'NONE', #145, #175, #77, .T. ) ;
#214 = SHAPE_DEFINITION_REPRESENTATION ( #109, #189 ) ;
#215 = VERTEX_POINT ( 'NONE', #204 ) ;
#216 = PRODUCT_DEFINITION_CONTEXT ( 'detailed design', #266, 'design' ) ;
#217 = DIRECTION ( 'NONE',  ( -0.000000000000000000, -0.000000000000000000, -1.000000000000000000 ) ) ;
#218 = ADVANCED_FACE ( 'NONE', ( #3 ), #183, .T. ) ;
#219 = ORIENTED_EDGE ( 'NONE', *, *, #22, .T. ) ;
#220 = DIRECTION ( 'NONE',  ( 1.000000000000000000, 0.000000000000000000, 0.000000000000000000 ) ) ;
#221 = ORIENTED_EDGE ( 'NONE', *, *, #235, .T. ) ;
#222 = DIRECTION ( 'NONE',  ( 0.000000000000000000, 0.000000000000000000, 1.000000000000000000 ) ) ;
#223 = EDGE_LOOP ( 'NONE', ( #127, #86, #141, #76 ) ) ;
#224 = PRODUCT_DEFINITION_FORMATION_WITH_SPECIFIED_SOURCE ( 'ANY', '', #251, .NOT_KNOWN. ) ;
#225 = ADVANCED_FACE ( 'NONE', ( #29 ), #232, .F. ) ;
#226 = DIRECTION ( 'NONE',  ( -0.000000000000000000, -0.000000000000000000, -1.000000000000000000 ) ) ;
#227 = CARTESIAN_POINT ( 'NONE',  ( 1.650000000000000133, 0.000000000000000000, 1.200000000000002176 ) ) ;
#228 = CARTESIAN_POINT ( 'NONE',  ( 0.000000000000000000, 0.000000000000000000, 2.750000000000000000 ) ) ;
#229 = CIRCLE ( 'NONE', #150, 3.999999999999999112 ) ;
#230 = DIRECTION ( 'NONE',  ( 0.000000000000000000, 0.000000000000000000, 1.000000000000000000 ) ) ;
#231 = FACE_OUTER_BOUND ( 'NONE', #151, .T. ) ;
#232 = CYLINDRICAL_SURFACE ( 'NONE', #10, 1.650000000000000133 ) ;
#233 = ORIENTED_EDGE ( 'NONE', *, *, #59, .F. ) ;
#234 = CIRCLE ( 'NONE', #285, 1.650000000000000133 ) ;
#235 = EDGE_CURVE ( 'NONE', #30, #175, #72, .T. ) ;
#236 = ORIENTED_EDGE ( 'NONE', *, *, #235, .F. ) ;
#237 = DIRECTION ( 'NONE',  ( 0.000000000000000000, 0.000000000000000000, 1.000000000000000000 ) ) ;
#238 = ORIENTED_EDGE ( 'NONE', *, *, #82, .T. ) ;
#239 = AXIS2_PLACEMENT_3D ( 'NONE', #75, #6, #261 ) ;
#240 =( GEOMETRIC_REPRESENTATION_CONTEXT ( 3 ) GLOBAL_UNCERTAINTY_ASSIGNED_CONTEXT ( ( #131 ) ) GLOBAL_UNIT_ASSIGNED_CONTEXT ( ( #140, #289, #79 ) ) REPRESENTATION_CONTEXT ( 'NONE', 'WORKASPACE' ) );
#241 =( NAMED_UNIT ( * ) PLANE_ANGLE_UNIT ( ) SI_UNIT ( $, .RADIAN. ) );
#242 = MANIFOLD_SOLID_BREP ( 'Fillet1', #112 ) ;
#243 = ORIENTED_EDGE ( 'NONE', *, *, #245, .T. ) ;
#244 = FACE_OUTER_BOUND ( 'NONE', #195, .T. ) ;
#245 = EDGE_CURVE ( 'NONE', #9, #258, #167, .T. ) ;
#246 = CARTESIAN_POINT ( 'NONE',  ( 0.000000000000000000, 0.000000000000000000, 0.000000000000000000 ) ) ;
#247 = CARTESIAN_POINT ( 'NONE',  ( -1.650000000000000133, 0.000000000000000000, 1.200000000000002176 ) ) ;
#248 = ORIENTED_EDGE ( 'NONE', *, *, #22, .F. ) ;
#249 = CARTESIAN_POINT ( 'NONE',  ( 0.000000000000000000, 0.000000000000000000, 0.000000000000000000 ) ) ;
#250 = CIRCLE ( 'NONE', #259, 1.650000000000000133 ) ;
#251 = PRODUCT ( 'washer', 'washer', '', ( #264 ) ) ;
#252 = DIRECTION ( 'NONE',  ( -0.000000000000000000, -0.000000000000000000, -1.000000000000000000 ) ) ;
#253 = DIRECTION ( 'NONE',  ( 1.000000000000000000, 0.000000000000000000, -0.000000000000000000 ) ) ;
#254 = EDGE_CURVE ( 'NONE', #9, #35, #4, .T. ) ;
#255 = CARTESIAN_POINT ( 'NONE',  ( 0.000000000000000000, 0.000000000000000000, 1.749999999999999778 ) ) ;
#256 = CARTESIAN_POINT ( 'NONE',  ( 4.999999999999999112, 6.123233995736765296E-16, 0.000000000000000000 ) ) ;
#257 = CYLINDRICAL_SURFACE ( 'NONE', #156, 4.999999999999999112 ) ;
#258 = VERTEX_POINT ( 'NONE', #7 ) ;
#259 = AXIS2_PLACEMENT_3D ( 'NONE', #103, #83, #176 ) ;
#260 = DIRECTION ( 'NONE',  ( -0.000000000000000000, -0.000000000000000000, -1.000000000000000000 ) ) ;
#261 = DIRECTION ( 'NONE',  ( -1.000000000000000000, 1.224646799147353454E-16, 0.000000000000000000 ) ) ;
#262 = CARTESIAN_POINT ( 'NONE',  ( -4.999999999999999112, 0.000000000000000000, 0.000000000000000000 ) ) ;
#263 = VECTOR ( 'NONE', #260, 1000.000000000000000 ) ;
#264 = PRODUCT_CONTEXT ( 'NONE', #121, 'mechanical' ) ;
#265 = ORIENTED_EDGE ( 'NONE', *, *, #165, .T. ) ;
#266 = APPLICATION_CONTEXT ( 'automotive_design' ) ;
#267 = CARTESIAN_POINT ( 'NONE',  ( 0.000000000000000000, 0.000000000000000000, 1.200000000000002176 ) ) ;
#268 = ADVANCED_FACE ( 'NONE', ( #142 ), #257, .T. ) ;
#269 = DIRECTION ( 'NONE',  ( -0.000000000000000000, -0.000000000000000000, -1.000000000000000000 ) ) ;
#270 = STYLED_ITEM ( 'NONE', ( #162 ), #242 ) ;
#271 = VECTOR ( 'NONE', #51, 1000.000000000000000 ) ;
#272 = ORIENTED_EDGE ( 'NONE', *, *, #194, .T. ) ;
#273 = CARTESIAN_POINT ( 'NONE',  ( -4.999999999999999112, 0.000000000000000000, 1.749999999999999778 ) ) ;
#274 = CARTESIAN_POINT ( 'NONE',  ( 1.650000000000000133, 2.020667218593133001E-16, 1.200000000000002176 ) ) ;
#275 = DIRECTION ( 'NONE',  ( 1.000000000000000000, 0.000000000000000000, -0.000000000000000000 ) ) ;
#276 = AXIS2_PLACEMENT_3D ( 'NONE', #93, #181, #73 ) ;
#277 = DIRECTION ( 'NONE',  ( 1.000000000000000000, 0.000000000000000000, 0.000000000000000000 ) ) ;
#278 = EDGE_CURVE ( 'NONE', #287, #145, #129, .T. ) ;
#279 = CARTESIAN_POINT ( 'NONE',  ( -3.999999999999999112, 5.510910596163088569E-16, 2.750000000000000000 ) ) ;
#280 = LINE ( 'NONE', #227, #33 ) ;
#281 = CIRCLE ( 'NONE', #124, 4.999999999999999112 ) ;
#282 = EDGE_CURVE ( 'NONE', #9, #104, #284, .T. ) ;
#283 = FILL_AREA_STYLE ('',( #143 ) ) ;
#284 = LINE ( 'NONE', #13, #271 ) ;
#285 = AXIS2_PLACEMENT_3D ( 'NONE', #249, #44, #69 ) ;
#286 = DIRECTION ( 'NONE',  ( -1.000000000000000000, 0.000000000000000000, 0.000000000000000000 ) ) ;
#287 = VERTEX_POINT ( 'NONE', #11 ) ;
#288 = PRODUCT_RELATED_PRODUCT_CATEGORY ( 'part', '', ( #251 ) ) ;
#289 =( NAMED_UNIT ( * ) PLANE_ANGLE_UNIT ( ) SI_UNIT ( $, .RADIAN. ) );
#290 = ORIENTED_EDGE ( 'NONE', *, *, #90, .F. ) ;
#291 = VECTOR ( 'NONE', #157, 1000.000000000000000 ) ;
#292 = CARTESIAN_POINT ( 'NONE',  ( 0.000000000000000000, 0.000000000000000000, 0.000000000000000000 ) ) ;
#293 = VERTEX_POINT ( 'NONE', #262 ) ;
#294 = CARTESIAN_POINT ( 'NONE',  ( 1.650000000000000133, 2.020667218593133001E-16, 2.750000000000000000 ) ) ;
#295 = EDGE_LOOP ( 'NONE', ( #236, #80, #15, #42 ) ) ;
#296 = AXIS2_PLACEMENT_3D ( 'NONE', #123, #217, #17 ) ;
#297 = ORIENTED_EDGE ( 'NONE', *, *, #99, .F. ) ;
#298 = DIRECTION ( 'NONE',  ( 1.000000000000000000, 0.000000000000000000, 0.000000000000000000 ) ) ;
#299 = LINE ( 'NONE', #132, #291 ) ;
#300 = CARTESIAN_POINT ( 'NONE',  ( 0.000000000000000000, 0.000000000000000000, 1.200000000000002176 ) ) ;
#301 = CIRCLE ( 'NONE', #84, 3.200000000000005063 ) ;
ENDSEC;
END-ISO-10303-21;
